<svg width="45" height="45" viewBox="0 0 45 45" fill="none" xmlns="http://www.w3.org/2000/svg">
<path d="M10 27.4036H11.4062H10ZM14.5397 32.7164L14.3465 34.1093H14.3465L14.5397 32.7164ZM31.4603 32.7164L31.6535 34.1093L31.4603 32.7164ZM14.2952 16.1111C14.2952 11.3036 18.1925 7.40625 23 7.40625V4.59375C16.6392 4.59375 11.4827 9.75025 11.4827 16.1111H14.2952ZM14.2952 19.2051V16.1111H11.4827V19.2051H14.2952ZM11.4062 27.4036C11.4062 26.7349 11.565 26.1072 11.8456 25.5526L9.33594 24.283C8.8608 25.2222 8.59375 26.2838 8.59375 27.4036H11.4062ZM14.7328 31.3234C12.8231 31.0586 11.4062 29.3973 11.4062 27.4036H8.59375C8.59375 30.7352 10.9815 33.6427 14.3465 34.1093L14.7328 31.3234ZM23 32.0385C20.5333 32.0385 17.3404 31.685 14.7328 31.3234L14.3465 34.1093C16.977 34.474 20.3294 34.851 23 34.851V32.0385ZM31.2672 31.3234C28.6596 31.685 25.4667 32.0385 23 32.0385V34.851C25.6706 34.851 29.023 34.474 31.6535 34.1093L31.2672 31.3234ZM34.5938 27.4036C34.5938 29.3973 33.1769 31.0586 31.2672 31.3234L31.6535 34.1093C35.0185 33.6427 37.4062 30.7352 37.4062 27.4036H34.5938ZM34.1544 25.5526C34.435 26.1072 34.5938 26.7349 34.5938 27.4036H37.4062C37.4062 26.2838 37.1392 25.2222 36.6641 24.283L34.1544 25.5526ZM31.7049 16.1111V19.2052H34.5174V16.1111H31.7049ZM23 7.40625C27.8076 7.40625 31.7049 11.3036 31.7049 16.1111H34.5174C34.5174 9.75025 29.3609 4.59375 23 4.59375V7.40625ZM36.6641 24.283C36.4141 23.789 36.1365 23.3001 35.883 22.8493C35.6229 22.3869 35.3838 21.957 35.1751 21.5288C34.756 20.6687 34.5174 19.9265 34.5174 19.2052H31.7049C31.7049 20.547 32.1497 21.7406 32.6468 22.7608C32.8963 23.2727 33.1735 23.7691 33.4316 24.228C33.6962 24.6986 33.9387 25.1262 34.1544 25.5526L36.6641 24.283ZM11.4827 19.2051C11.4827 19.9264 11.2441 20.6686 10.8249 21.5287C10.6163 21.9569 10.3772 22.3868 10.1171 22.8492C9.86351 23.3001 9.58588 23.7889 9.33594 24.283L11.8456 25.5526C12.0613 25.1261 12.3038 24.6985 12.5684 24.228C12.8265 23.7691 13.1038 23.2727 13.3532 22.7607C13.8504 21.7405 14.2952 20.5469 14.2952 19.2051H11.4827Z" fill="#414CA9"/>
<path d="M26.6113 37.2854C25.835 38.453 24.5075 39.2225 23.0002 39.2225C21.493 39.2225 20.1655 38.453 19.3891 37.2854" stroke="#414CA9" stroke-width="2.8125" stroke-linecap="round"/>
</svg>
