<svg width="45" height="45" viewBox="0 0 45 45" fill="none" xmlns="http://www.w3.org/2000/svg">
<path fill-rule="evenodd" clip-rule="evenodd" d="M25.3363 7.13596C27.3484 5.1208 30.6119 5.11956 32.6256 7.1332L37.2978 11.8054C39.2943 13.8019 39.315 17.0339 37.3443 19.0559L20.0322 36.8182C18.7093 38.1755 16.8949 38.9408 15.0004 38.9408L9.84009 38.9405C7.44151 38.9404 5.52598 36.941 5.62686 34.5427L5.84839 29.2758C5.92245 27.5151 6.65423 25.8463 7.89892 24.5998L25.3363 7.13596ZM30.6383 9.12344C29.723 8.20815 28.2396 8.20871 27.325 9.1247L24.2068 12.2476L32.2314 20.2722L35.3317 17.0913C36.2275 16.1723 36.218 14.7032 35.3106 13.7957L30.6383 9.12344ZM9.88766 26.5885L22.2196 14.2379L30.2682 22.2865L18.0196 34.8537C17.2258 35.668 16.1372 36.1273 15.0005 36.1272L9.84021 36.127C9.04069 36.1269 8.40218 35.4605 8.4358 34.661L8.65734 29.3941C8.70178 28.3377 9.14084 27.3364 9.88766 26.5885ZM38.4653 38.8033C39.2416 38.8033 39.871 38.1735 39.871 37.3965C39.871 36.6196 39.2416 35.9898 38.4653 35.9898H26.9871C26.2107 35.9898 25.5813 36.6196 25.5813 37.3965C25.5813 38.1735 26.2107 38.8033 26.9871 38.8033H38.4653Z" fill="#414CA9"/>
</svg>
