<svg width="38" height="39" viewBox="0 0 38 39" fill="none" xmlns="http://www.w3.org/2000/svg">
<path d="M17.2322 37.7678C18.2085 38.7441 19.7915 38.7441 20.7678 37.7678L36.6777 21.8579C37.654 20.8816 37.654 19.2986 36.6777 18.3223C35.7014 17.346 34.1184 17.346 33.1421 18.3223L19 32.4645L4.85786 18.3223C3.88155 17.346 2.29864 17.346 1.32233 18.3223C0.34602 19.2986 0.34602 20.8816 1.32233 21.8579L17.2322 37.7678ZM16.5 35V36H21.5V35H16.5Z" fill="black"/>
<path d="M17.2322 20.7678C18.2085 21.7441 19.7915 21.7441 20.7678 20.7678L36.6777 4.85786C37.654 3.88155 37.654 2.29864 36.6777 1.32233C35.7014 0.34602 34.1184 0.34602 33.1421 1.32233L19 15.4645L4.85786 1.32233C3.88155 0.34602 2.29864 0.34602 1.32233 1.32233C0.34602 2.29864 0.34602 3.88155 1.32233 4.85786L17.2322 20.7678ZM16.5 18V19H21.5V18H16.5Z" fill="black"/>
</svg>
