<svg width="119" height="78" viewBox="0 0 119 78" fill="none" xmlns="http://www.w3.org/2000/svg">
<g clip-path="url(#clip0_1620_1267)">
<path d="M35.5776 1.93801L35.5776 1.93802L3.75785 33.7579C1.4147 36.101 1.4147 39.9 3.75785 42.2431L35.5776 74.0629C37.9207 76.4061 41.7198 76.4061 44.063 74.0629C46.4061 71.7197 46.4061 67.9208 44.0629 65.5777L16.4857 38.0005L44.0629 10.4233C46.4061 8.08016 46.4061 4.28118 44.0629 1.93803C41.7198 -0.405133 37.9208 -0.405107 35.5776 1.93801Z" fill="black" stroke="white" stroke-width="2"/>
<path d="M73.94 1.93801L73.94 1.93803C71.5968 4.28117 71.5968 8.08016 73.94 10.4233L101.517 38.0005L73.94 65.5777C71.5968 67.9208 71.5968 71.7198 73.94 74.0629C76.2832 76.4061 80.0822 76.4061 82.4253 74.0629L114.245 42.2431C114.245 42.2431 114.245 42.2431 114.245 42.2431C116.589 39.9 116.589 36.101 114.245 33.7579C114.245 33.7578 114.245 33.7578 114.245 33.7578L82.4253 1.93802C80.0821 -0.405133 76.2832 -0.405107 73.94 1.93801Z" fill="black" stroke="white" stroke-width="2"/>
</g>
<defs>
<clipPath id="clip0_1620_1267">
<rect width="119" height="78" fill="white"/>
</clipPath>
</defs>
</svg>
