<svg width="600" height="480" viewBox="0 0 600 480" fill="none" xmlns="http://www.w3.org/2000/svg">
<path d="M35.8242 23.1328H31.7461L30.8672 16.6641H27.5098V3.18164C27.5098 2.49609 26.9648 1.95117 26.2793 1.95117C25.5938 1.95117 25.0488 2.49609 25.0488 3.18164V16.6641H21.6914L20.8125 23.1328H16.7344V33.5039H22.7813C23.4668 33.5039 24.0117 34.0488 24.0117 34.7344C24.0117 35.4199 23.4668 35.9648 22.7813 35.9648H16.7344V41.1152H22.7813C23.4668 41.1152 24.0117 41.6602 24.0117 42.3457C24.0117 43.0312 23.4668 43.5762 22.7813 43.5762H16.7344V48.7266H22.7813C23.4668 48.7266 24.0117 49.2715 24.0117 49.957C24.0117 50.6426 23.4668 51.1875 22.7813 51.1875H16.7344V56.6719H35.8242V23.1328ZM27.7031 50.8008C27.4746 51.0293 27.1582 51.1523 26.8242 51.1523C26.5078 51.1523 26.1914 51.0293 25.9629 50.8008C25.7344 50.5723 25.5938 50.2559 25.5938 49.9219C25.5938 49.6055 25.7168 49.2891 25.9629 49.0605C26.1914 48.832 26.5078 48.6914 26.8242 48.6914C27.1406 48.6914 27.457 48.832 27.7031 49.0605C27.9316 49.2891 28.0547 49.6055 28.0547 49.9219C28.0547 50.2559 27.9316 50.5723 27.7031 50.8008ZM27.7031 43.207C27.4746 43.4355 27.1582 43.5586 26.8242 43.5586C26.5078 43.5586 26.1914 43.4355 25.9629 43.207C25.7344 42.9785 25.5938 42.6621 25.5938 42.3281C25.5938 42.2578 25.5938 42.1699 25.6113 42.082C25.6289 41.9941 25.6465 41.9238 25.6816 41.8535C25.7168 41.7832 25.752 41.7129 25.7871 41.6426C25.8398 41.5723 25.875 41.5195 25.9453 41.4492C25.998 41.3965 26.0684 41.3437 26.1387 41.291C26.209 41.2383 26.2793 41.2031 26.3496 41.1855C26.4199 41.1504 26.5078 41.1328 26.5781 41.1152C26.7363 41.0801 26.8945 41.0801 27.0527 41.1152C27.123 41.1328 27.2109 41.1504 27.2813 41.1855C27.3516 41.2207 27.4219 41.2559 27.4922 41.291C27.5625 41.3437 27.6152 41.3789 27.6855 41.4492C27.7383 41.502 27.791 41.5723 27.8438 41.6426C27.8965 41.7129 27.9316 41.7832 27.9492 41.8535C27.9844 41.9238 28.002 42.0117 28.0195 42.082C28.0371 42.1699 28.0371 42.2402 28.0371 42.3281C28.0547 42.6621 27.9316 42.9785 27.7031 43.207ZM27.7031 35.5957C27.4746 35.8242 27.1582 35.9473 26.8242 35.9473C26.7363 35.9473 26.666 35.9473 26.5781 35.9297C26.4902 35.9121 26.4199 35.8945 26.3496 35.8594C26.2793 35.8242 26.209 35.7891 26.1387 35.7363C26.0684 35.6836 26.0156 35.6484 25.9453 35.5781C25.8926 35.5254 25.8398 35.4551 25.7871 35.3848C25.7344 35.3145 25.6992 35.2441 25.6816 35.1738C25.6465 35.1035 25.6289 35.0156 25.6113 34.9453C25.5938 34.8574 25.5938 34.7871 25.5938 34.6992C25.5938 34.3828 25.7168 34.0664 25.9629 33.8379C26.0156 33.7852 26.0859 33.7324 26.1563 33.6797C26.2266 33.627 26.2969 33.5918 26.3672 33.5742C26.4375 33.5391 26.5254 33.5215 26.5957 33.5039C27 33.416 27.4219 33.5566 27.7031 33.8379C27.9316 34.0664 28.0547 34.3828 28.0547 34.6992C28.0547 35.0508 27.9316 35.3672 27.7031 35.5957Z" fill="#414CA9"/>
<path d="M18.9844 70.3828H23.3789H29.1797H33.5742V64.7402H39.2168V59.1152H13.3418V64.7402H18.9844V70.3828Z" fill="#668EF3"/>
<path d="M38.6543 85.5879H29.1797V72.8438H23.3789V85.5879H13.9219C13.2363 85.5879 12.6914 86.1328 12.6914 86.8184C12.6914 87.5039 13.2363 88.0488 13.9219 88.0488H38.6543C39.3398 88.0488 39.8848 87.5039 39.8848 86.8184C39.8848 86.1504 39.3223 85.5879 38.6543 85.5879Z" fill="#414CA9"/>
<path d="M71.1914 61.2422H77.2383C77.2559 61.2422 77.291 61.2422 77.3086 61.2422V57.1289H57.1816V77.959H77.3086V63.6855C77.291 63.6855 77.2559 63.6855 77.2383 63.6855H71.1914C70.5059 63.6855 69.9609 63.1406 69.9609 62.4551C69.9609 61.7695 70.5234 61.2422 71.1914 61.2422ZM68.3613 62.7187C68.3438 62.8066 68.3262 62.877 68.291 62.9473C68.2559 63.0176 68.2207 63.0879 68.1855 63.1582C68.1328 63.2285 68.0977 63.2812 68.0273 63.3516C67.9746 63.4043 67.9043 63.457 67.834 63.5098C67.7637 63.5625 67.6934 63.5977 67.6231 63.6152C67.5527 63.6504 67.4648 63.668 67.3945 63.6855C67.3242 63.7031 67.2363 63.7031 67.1484 63.7031C67.0781 63.7031 66.9902 63.6855 66.9023 63.6855C66.832 63.668 66.7441 63.6504 66.6738 63.6152C66.6035 63.5801 66.5332 63.5449 66.4629 63.5098C66.3926 63.457 66.3398 63.4219 66.2695 63.3516C66.2168 63.2988 66.1641 63.2285 66.1113 63.1582C66.0586 63.0879 66.0234 63.0176 66.0059 62.9473C65.9707 62.877 65.9531 62.7891 65.9356 62.7187C65.918 62.6484 65.918 62.5605 65.918 62.4727C65.918 62.3848 65.9356 62.3145 65.9356 62.2266C65.9356 62.1387 65.9707 62.0684 66.0059 61.998C66.041 61.9277 66.0762 61.8574 66.1113 61.7871C66.1641 61.7168 66.1992 61.6641 66.2695 61.5937C66.5508 61.3125 66.9727 61.1719 67.377 61.2598C67.4648 61.2773 67.5352 61.2949 67.6055 61.3301C67.6758 61.3652 67.7461 61.4004 67.8164 61.4355C67.8867 61.4883 67.9395 61.5234 68.0098 61.5937C68.2383 61.8223 68.3613 62.1387 68.3613 62.4727C68.3789 62.5605 68.3789 62.6309 68.3613 62.7187Z" fill="#668EF3"/>
<path d="M54.7207 54.6855H77.0449C75.9727 50.0801 71.8594 46.6348 66.9199 46.6348H66.375V42.2227H56.9707V46.6348H56.4258C50.6777 46.6348 46.0371 51.293 46.0371 57.0234V83.3555C46.0371 85.2539 47.584 86.8008 49.4824 86.8008H73.8809C75.7793 86.8008 77.3262 85.2539 77.3262 83.3555V80.4199H54.7207V54.6855Z" fill="#414CA9"/>
<path d="M63.2812 31.7461H60.0469V39.7793H63.2812V31.7461Z" fill="#668EF3"/>
<path d="M53.7191 39.7793H57.6039V31.7461H53.7191C52.8929 31.7461 52.2425 32.4141 52.2425 33.2227V38.2852C52.2249 39.1113 52.8929 39.7793 53.7191 39.7793Z" fill="#668EF3"/>
<path d="M71.1035 38.2852V33.2227C71.1035 32.3965 70.4355 31.7461 69.627 31.7461H65.7422V39.7793H69.627C70.4355 39.7793 71.1035 39.1113 71.1035 38.2852Z" fill="#668EF3"/>
<path d="M171.045 18.1934H129.648C127.012 18.1934 124.867 20.3379 124.867 22.9746V48.498H175.844V22.9746C175.826 20.3203 173.699 18.1934 171.045 18.1934Z" fill="#668EF3"/>
<path d="M124.867 53.5606C124.867 56.1973 127.012 58.3418 129.648 58.3418H146.33V69.3633H141.637C140.951 69.3633 140.406 69.9082 140.406 70.5938C140.406 71.2793 140.951 71.8242 141.637 71.8242H159.039C159.725 71.8242 160.27 71.2793 160.27 70.5938C160.27 69.9082 159.725 69.3633 159.039 69.3633H154.17V58.3418H171.027C173.664 58.3418 175.809 56.1973 175.809 53.5606V50.959H124.832V53.5606H124.867Z" fill="#414CA9"/>
<path d="M202.863 18.1758H185.021C183.773 18.1758 182.754 19.1953 182.754 20.4434V68.5547C182.754 69.8027 183.773 70.8223 185.021 70.8223H202.881C204.129 70.8223 205.148 69.8027 205.148 68.5547V20.4434C205.131 19.1953 204.111 18.1758 202.863 18.1758ZM187.412 27.7031H200.473V34.9102H187.412V27.7031ZM193.934 61.7695C191.859 61.7695 190.172 60.082 190.172 58.0078C190.172 55.9336 191.859 54.2461 193.934 54.2461C196.008 54.2461 197.695 55.9336 197.695 58.0078C197.695 60.082 196.025 61.7695 193.934 61.7695ZM200.473 40.2891H187.412C186.727 40.2891 186.182 39.7441 186.182 39.0586C186.182 38.373 186.727 37.8281 187.412 37.8281H200.473C201.158 37.8281 201.703 38.373 201.703 39.0586C201.703 39.7441 201.158 40.2891 200.473 40.2891Z" fill="#414CA9"/>
<path d="M277.846 63.0352C278.865 62.7715 279.902 62.6484 280.939 62.6484C281.484 62.6484 282.012 62.6836 282.557 62.7539L267.809 4.6582L245.678 10.2832L247.963 19.2656L261.111 15.9258L273.574 65.0215C274.84 64.1074 276.299 63.4219 277.846 63.0352Z" fill="#414CA9"/>
<path d="M324.322 69.082L322.002 59.9414L291.064 67.7813C292.014 69.082 292.717 70.5586 293.104 72.123C293.508 73.6875 293.596 75.3223 293.367 76.9219L324.322 69.082Z" fill="#414CA9"/>
<path d="M297.762 45.0527L289.148 47.2324L286.969 38.6191L279.48 40.5176L285.281 63.4043C286.723 63.9316 288.041 64.7227 289.201 65.7246L312.07 59.9238L305.443 33.9258L295.564 36.4395L297.762 45.0527Z" fill="#414CA9"/>
<path d="M283.98 36.8438L286.635 36.1582L297.182 33.4863L304.846 31.5527L298.236 5.48438L288.357 7.99805L290.537 16.6113L281.924 18.8086L279.727 10.1777L272.238 12.0938L278.848 38.1445L283.98 36.8438Z" fill="#668EF3"/>
<path d="M288.445 68.4493C287.057 66.92 285.229 65.8302 283.207 65.3556C281.678 65.004 280.061 65.004 278.443 65.4083C276.826 65.8126 275.385 66.6036 274.225 67.6407C271.482 70.0665 270.164 73.9161 271.131 77.713C272.502 83.1271 278.004 86.4142 283.418 85.0255C287.18 84.0763 289.922 81.1231 290.766 77.5899C291.135 76.0431 291.152 74.3907 290.73 72.7384C290.326 71.086 289.518 69.6271 288.445 68.4493ZM285.65 75.3927C285.65 75.4278 285.65 75.463 285.65 75.4981C285.633 75.6564 285.615 75.8146 285.598 75.9552C285.598 75.9903 285.58 76.0431 285.58 76.0782C285.563 76.2188 285.527 76.3595 285.492 76.4825C285.475 76.5704 285.439 76.6583 285.404 76.7638C285.387 76.8165 285.369 76.8692 285.352 76.922C285.334 76.9396 285.334 76.9747 285.316 76.9923C285.281 77.0802 285.229 77.1856 285.193 77.2735C285.176 77.2911 285.176 77.3263 285.158 77.3439C285.123 77.4142 285.088 77.4845 285.035 77.5548C285.018 77.5899 284.982 77.6427 284.965 77.6778C284.93 77.7306 284.895 77.8009 284.859 77.8536C284.842 77.8888 284.824 77.9064 284.807 77.9415C284.754 78.0294 284.684 78.0997 284.631 78.1876C284.613 78.2052 284.596 78.2228 284.578 78.2403C284.49 78.3458 284.402 78.4513 284.297 78.5392C284.279 78.5567 284.279 78.5567 284.262 78.5743C284.227 78.6095 284.174 78.6622 284.139 78.6974C284.068 78.7677 283.998 78.8204 283.928 78.8907C283.893 78.9259 283.84 78.961 283.805 78.9786C283.77 79.0138 283.717 79.0313 283.682 79.0665C283.647 79.1017 283.594 79.1192 283.559 79.1544C283.506 79.1896 283.471 79.2071 283.418 79.2423C283.383 79.2599 283.33 79.295 283.295 79.3126C283.26 79.3302 283.225 79.3478 283.189 79.3653C283.031 79.4532 282.873 79.5235 282.697 79.5938C282.645 79.6114 282.574 79.6466 282.522 79.6642C282.469 79.6817 282.416 79.6993 282.363 79.7169C282.293 79.7345 282.205 79.7696 282.135 79.7872C281.643 79.9103 281.133 79.963 280.641 79.9278C280.588 79.9278 280.535 79.9278 280.482 79.9103C280.395 79.9103 280.324 79.8927 280.236 79.8751C280.201 79.8751 280.166 79.8575 280.131 79.8575C279.955 79.8224 279.779 79.7872 279.621 79.7345C279.568 79.7169 279.533 79.6993 279.48 79.6993C279.445 79.6817 279.41 79.6817 279.375 79.6642C279.322 79.6466 279.287 79.629 279.234 79.6114C279.182 79.5939 279.147 79.5763 279.094 79.5587C279.041 79.5235 278.971 79.506 278.918 79.4708C278.883 79.4532 278.83 79.4356 278.795 79.4181C278.742 79.4005 278.707 79.3653 278.654 79.3478C278.549 79.295 278.443 79.2247 278.355 79.1544C278.285 79.1017 278.215 79.0665 278.145 78.9962C278.092 78.961 278.039 78.9259 277.986 78.8732C277.898 78.8028 277.828 78.7501 277.758 78.6798C277.705 78.6446 277.67 78.5919 277.635 78.5567C277.564 78.4864 277.494 78.4161 277.424 78.3282C277.354 78.2403 277.283 78.1524 277.213 78.0646C277.16 77.9767 277.09 77.9064 277.037 77.8185C276.984 77.7306 276.914 77.6251 276.861 77.5372C276.844 77.4845 276.809 77.4493 276.791 77.3966C276.756 77.3263 276.721 77.256 276.686 77.1856C276.633 77.0626 276.58 76.9396 276.527 76.7989C276.475 76.6583 276.439 76.5353 276.404 76.3946C276.352 76.1661 276.316 75.9552 276.281 75.7267C276.281 75.6739 276.281 75.6212 276.264 75.5685C276.105 73.336 277.564 71.2442 279.797 70.6642C280.254 70.5411 280.711 70.506 281.15 70.5235C281.186 70.5235 281.203 70.5235 281.238 70.5235C281.291 70.5235 281.361 70.5235 281.414 70.5411H281.432C281.572 70.5587 281.73 70.5763 281.871 70.6114C281.941 70.629 282.012 70.6466 282.1 70.6642C282.17 70.6817 282.24 70.6993 282.311 70.7169C282.381 70.7345 282.434 70.7521 282.504 70.7696C282.557 70.7872 282.609 70.8048 282.68 70.8399C282.715 70.8575 282.75 70.8575 282.785 70.8751C282.838 70.8927 282.891 70.9278 282.961 70.9454C283.031 70.9806 283.102 71.0157 283.172 71.0509C283.295 71.1036 283.4 71.1739 283.506 71.2442C283.559 71.2794 283.611 71.3146 283.664 71.3497C283.717 71.3849 283.77 71.42 283.805 71.4552C283.875 71.5079 283.928 71.5431 283.98 71.5958C284.033 71.631 284.068 71.6661 284.104 71.7013C284.156 71.7364 284.191 71.7716 284.227 71.8243C284.244 71.8243 284.244 71.8419 284.244 71.8419C284.279 71.8771 284.332 71.9298 284.367 71.9649C284.543 72.1407 284.684 72.3341 284.824 72.5274C284.842 72.5626 284.877 72.5978 284.895 72.6329C284.947 72.7032 284.982 72.7735 285.035 72.8439C285.053 72.879 285.07 72.9142 285.088 72.9493C285.141 73.0548 285.193 73.1603 285.246 73.2657L285.65 74.8829C285.65 75.0587 285.65 75.2345 285.65 75.3927Z" fill="#668EF3"/>
<path d="M415.283 43.7344L407.075 51.9434C407.444 55.0547 406.371 58.1485 404.139 60.3985C402.205 62.3321 399.621 63.4043 396.879 63.4043C394.137 63.4043 391.553 62.3321 389.619 60.3985C387.686 58.4649 386.614 55.8809 386.614 53.1387C386.614 50.3965 387.686 47.8125 389.619 45.8789C391.553 43.9453 394.137 42.8731 396.879 42.8731C397.283 42.8731 397.67 42.8907 398.075 42.9434L406.283 34.7344L401.379 29.8301C398.989 27.4395 396.545 28.8633 394.155 31.2539L388.53 36.8789L388.582 36.9317C390.938 39.2871 388.16 41.8711 384.856 42.3809C380.778 42.9961 376.858 44.877 373.711 48.0235C365.889 55.8457 368.825 65.5664 376.647 73.3887C384.469 81.211 394.207 84.1465 402.012 76.3243C405.158 73.1778 407.039 69.2578 407.655 65.1797C408.147 61.875 410.731 59.0977 413.104 61.4532L413.157 61.5059L418.782 55.8809C421.172 53.4903 422.596 51.0469 420.205 48.6563L415.283 43.7344ZM391.553 73.5821L376.401 58.4297L379.565 55.2657L394.717 70.418L391.553 73.5821Z" fill="#414CA9"/>
<path d="M390.85 47.127C387.528 50.4492 387.528 55.8457 390.85 59.168C394.172 62.4902 399.569 62.4902 402.891 59.168C405.018 57.041 405.774 54.0879 405.194 51.3457C404.86 49.7988 404.086 48.3223 402.891 47.127C401.696 45.9317 400.219 45.1582 398.672 44.8242C395.93 44.2266 392.959 45 390.85 47.127Z" fill="#668EF3"/>
<path d="M400.078 43.3828C401.59 43.875 402.979 44.7363 404.121 45.8789C405.264 47.0215 406.107 48.3926 406.617 49.9219L427.869 28.6523L421.348 22.1309L400.078 43.3828Z" fill="#414CA9"/>
<path d="M440.631 20.7773L439.19 19.3359C439.172 19.3184 439.137 19.3008 439.12 19.2832L440.333 17.7715C441.018 16.9277 440.948 15.7148 440.174 14.9414L435.059 9.82617C434.286 9.05273 433.073 9 432.229 9.66797L430.717 10.8809C430.7 10.8633 430.682 10.8281 430.665 10.8105L429.223 9.36914C428.872 9.01758 428.327 9.01758 427.975 9.36914C427.624 9.7207 427.624 10.2656 427.975 10.6172L429.364 12.0059L422.526 17.5254C421.542 18.3164 421.471 19.793 422.35 20.6719L429.346 27.668C430.243 28.5645 431.702 28.4766 432.493 27.4922L438.012 20.6543L439.401 22.043C439.577 22.2188 439.805 22.3066 440.016 22.3066C440.227 22.3066 440.473 22.2188 440.631 22.043C440.983 21.6738 440.983 21.1113 440.631 20.7773Z" fill="#668EF3"/>
<path d="M525 23.8184L525.018 23.8008L535.916 12.7969H514.084L524.982 23.8008L525 23.8184Z" fill="#668EF3"/>
<path d="M527.988 67.6055H527.707C527.391 67.623 527.057 67.6758 526.74 67.7988C526.107 68.0273 525.492 68.2383 524.877 68.4492V63.7207C519.111 65.4785 513.363 66.1289 507.598 65.6719C504.187 65.4082 500.777 64.7578 497.367 63.7207V68.5195C496.77 68.3086 496.172 68.0977 495.557 67.8691C495.17 67.7285 494.783 67.6582 494.396 67.6582C493.166 67.6582 492.006 68.3613 491.461 69.5391C490.687 71.2266 491.514 73.2305 493.254 73.8984C499.02 76.1133 504.891 77.2031 510.832 77.2031C516.809 77.2031 522.855 76.0957 528.937 73.8633C530.256 73.3711 531.064 72.1406 531.064 70.8223C531.064 70.4004 530.977 69.9609 530.801 69.5566C530.291 68.3965 529.184 67.6582 527.988 67.6055Z" fill="#414CA9"/>
<path d="M511.113 43.4883C509.9 43.4883 508.705 43.6465 507.58 43.9453C501.691 45.5098 497.35 50.8535 497.35 57.2344V61.1543L498.07 61.3652C501.287 62.3496 504.539 62.9648 507.773 63.2109C508.881 63.2988 510.006 63.3516 511.113 63.3516C513.275 63.3516 515.437 63.1758 517.617 62.8594C519.797 62.5254 521.977 62.0332 524.139 61.3828L524.859 61.1719V57.252C524.859 53.4551 523.312 50.0098 520.834 47.5312C518.355 45.0176 514.91 43.4883 511.113 43.4883Z" fill="#668EF3"/>
<path d="M524.982 32.5546L525.018 32.5195L524.982 32.5546Z" fill="#414CA9"/>
<path d="M563.004 41.3086L560.191 44.1738L557.027 40.9395L560.279 37.6172L541.822 12.7969L539.08 22.9395L531.434 23.2383L535.512 25.752L526.213 31.7637V51.3105C526.951 53.1738 527.32 55.1777 527.32 57.2344V65.1621C527.408 65.1621 527.514 65.1445 527.602 65.1445H527.654H528.041H528.094C529.869 65.2324 531.504 66.1641 532.506 67.6055H542.402V33.0996L559.84 53.4023L567.1 46.8281L563.004 41.3086ZM531.469 56.3555C531.416 56.4082 531.346 56.4609 531.275 56.5137C531.205 56.5664 531.135 56.6016 531.064 56.6191C530.994 56.6543 530.906 56.6719 530.836 56.6895C530.748 56.707 530.678 56.707 530.59 56.707C530.502 56.707 530.432 56.707 530.344 56.6895C530.256 56.6719 530.186 56.6543 530.115 56.6191C530.045 56.584 529.975 56.5488 529.904 56.5137C529.834 56.4609 529.764 56.4258 529.711 56.3555C529.482 56.127 529.359 55.8105 529.359 55.4941C529.359 55.4063 529.359 55.3359 529.377 55.248C529.395 55.1777 529.412 55.0898 529.447 55.0195C529.482 54.9492 529.518 54.8789 529.553 54.8086C529.605 54.7383 529.641 54.668 529.711 54.6152C529.764 54.5625 529.834 54.5098 529.904 54.457C529.975 54.4043 530.045 54.3691 530.115 54.3516C530.186 54.3164 530.273 54.2988 530.344 54.2812C530.502 54.2461 530.66 54.2461 530.818 54.2812C530.906 54.2988 530.977 54.3164 531.047 54.3516C531.117 54.3867 531.188 54.4219 531.258 54.457C531.328 54.5098 531.381 54.5625 531.451 54.6152C531.504 54.668 531.557 54.7383 531.609 54.8086C531.662 54.8789 531.697 54.9492 531.715 55.0195C531.75 55.0898 531.768 55.1777 531.785 55.248C531.803 55.3359 531.803 55.4063 531.803 55.4941C531.82 55.8105 531.697 56.127 531.469 56.3555ZM531.803 44.9824C531.785 45.0703 531.768 45.1406 531.732 45.2109C531.697 45.2813 531.662 45.3516 531.627 45.4219C531.574 45.4922 531.521 45.5449 531.469 45.6152C531.416 45.668 531.346 45.7207 531.275 45.7734C531.205 45.8262 531.135 45.8613 531.064 45.8789C530.994 45.9141 530.906 45.9316 530.836 45.9492C530.748 45.9668 530.678 45.9668 530.59 45.9668C530.502 45.9668 530.432 45.9668 530.344 45.9492C530.256 45.9316 530.186 45.9141 530.115 45.8789C530.045 45.8437 529.975 45.8086 529.904 45.7734C529.834 45.7207 529.764 45.6855 529.711 45.6152C529.658 45.5625 529.605 45.4922 529.553 45.4219C529.5 45.3516 529.465 45.2813 529.447 45.2109C529.412 45.1406 529.395 45.0527 529.377 44.9824C529.359 44.9121 529.359 44.8242 529.359 44.7363C529.359 44.4023 529.5 44.1035 529.711 43.875C529.764 43.8223 529.834 43.7695 529.904 43.7168C529.975 43.6641 530.045 43.6289 530.115 43.6113C530.186 43.5762 530.273 43.5586 530.344 43.541C530.502 43.5059 530.66 43.5059 530.818 43.541C530.906 43.5586 530.977 43.5762 531.047 43.6113C531.117 43.6465 531.188 43.6816 531.258 43.7168C531.328 43.7695 531.381 43.8047 531.451 43.875C531.68 44.1035 531.803 44.4199 531.803 44.7363C531.82 44.8242 531.82 44.8945 531.803 44.9824ZM537.129 38.707H532.295C531.609 38.707 531.064 38.1621 531.064 37.4766C531.064 36.791 531.609 36.2461 532.295 36.2461H537.129C537.814 36.2461 538.359 36.791 538.359 37.4766C538.359 38.1621 537.814 38.707 537.129 38.707Z" fill="#414CA9"/>
<path d="M507.598 41.3965C508.758 41.1328 509.936 41.0098 511.131 41.0098C515.455 41.0098 519.533 42.6973 522.592 45.7559C523.014 46.1777 523.4 46.5996 523.77 47.0566V28.248L514.506 25.7344L517.09 22.1484L510.938 22.9219L508.195 12.7793L482.9 46.8281L490.16 53.4023L507.598 33.0996V41.3965Z" fill="#414CA9"/>
<path d="M50.9238 165.369H42.873V172.998C42.873 173.684 42.3281 174.229 41.6426 174.229C40.957 174.229 40.4121 173.684 40.4121 172.998V165.369H13.0254V182.525C13.0254 188.273 15.5742 193.406 19.6172 196.887C22.9395 199.752 27.2637 201.475 31.9746 201.475C37.0547 201.475 41.6602 199.471 45.0703 196.219C48.6738 192.773 50.9238 187.904 50.9238 182.508V165.369ZM42.5215 181.699C42.293 181.928 41.9766 182.051 41.6426 182.051C41.5547 182.051 41.4844 182.051 41.3965 182.033C41.3262 182.016 41.2383 181.998 41.168 181.963C41.0977 181.928 41.0273 181.893 40.957 181.84C40.8867 181.787 40.834 181.752 40.7637 181.682C40.5352 181.453 40.4121 181.137 40.4121 180.803C40.4121 180.486 40.5527 180.17 40.7637 179.941C40.8164 179.889 40.8867 179.836 40.957 179.783C41.0273 179.73 41.0977 179.695 41.168 179.678C41.2383 179.643 41.3262 179.625 41.3965 179.607C41.8008 179.52 42.2227 179.66 42.5039 179.941C42.7324 180.17 42.8555 180.486 42.8555 180.803C42.873 181.154 42.75 181.471 42.5215 181.699Z" fill="#668EF3"/>
<path d="M58.1133 163.752C56.4785 163.752 54.8965 163.963 53.3848 164.35V182.525C53.3848 188.344 51.0996 193.758 46.9512 197.818C50.0801 200.121 53.9297 201.475 58.1133 201.475C62.877 201.475 67.2363 199.699 70.5586 196.781C70.5234 196.764 70.4883 196.729 70.4707 196.693L58.0781 184.301C57.6035 183.826 57.6035 183.035 58.0781 182.561C58.5527 182.086 59.3437 182.086 59.8184 182.561L72.2109 194.953C72.2461 194.988 72.2637 195.006 72.2988 195.041C75.2168 191.719 76.9922 187.359 76.9922 182.596C76.9746 172.189 68.5371 163.752 58.1133 163.752ZM56.6719 181.172C56.4434 181.4 56.127 181.541 55.793 181.541C55.7051 181.541 55.6348 181.523 55.5469 181.523C55.459 181.506 55.3887 181.488 55.3184 181.453C55.248 181.418 55.1777 181.383 55.1074 181.348C55.0371 181.295 54.9844 181.26 54.9141 181.189C54.6855 180.961 54.5625 180.645 54.5625 180.328C54.5625 180.24 54.5625 180.17 54.5801 180.082C54.5977 179.994 54.6152 179.924 54.6504 179.854C54.6855 179.783 54.7207 179.713 54.7559 179.643C54.8086 179.572 54.8437 179.52 54.9141 179.449C55.1953 179.168 55.6348 179.027 56.0215 179.115C56.1094 179.133 56.1797 179.15 56.25 179.186C56.3203 179.221 56.3906 179.256 56.4609 179.309C56.5313 179.361 56.584 179.396 56.6543 179.467C56.707 179.52 56.7598 179.59 56.8125 179.66C56.8652 179.73 56.9004 179.801 56.9355 179.871C56.9707 179.941 56.9883 180.029 57.0059 180.1C57.0234 180.17 57.0234 180.258 57.0234 180.346C57.0234 180.609 56.9004 180.943 56.6719 181.172Z" fill="#414CA9"/>
<path d="M50.9238 147.475C50.9238 142.236 48.7969 137.508 45.3691 134.08C41.9414 130.652 37.1953 128.525 31.9746 128.525C28.4414 128.525 25.1367 129.492 22.3066 131.18C16.752 134.484 13.0254 140.549 13.0254 147.492V162.943H50.9238V147.475ZM26.2617 137.824C22.8691 139.846 20.7598 143.537 20.7598 147.475C20.7598 148.16 20.2148 148.705 19.5293 148.705C18.8437 148.705 18.2988 148.16 18.2988 147.475C18.2988 142.676 20.8652 138.158 24.9961 135.697C25.5762 135.346 26.332 135.539 26.6836 136.137C27.0352 136.717 26.8418 137.473 26.2617 137.824Z" fill="#414CA9"/>
<path d="M147.299 148.477V181.523C147.299 182.174 147.826 182.719 148.494 182.719H181.541C182.191 182.719 182.736 182.191 182.736 181.523V148.477C182.736 147.826 182.209 147.281 181.541 147.281H148.477C147.826 147.299 147.299 147.826 147.299 148.477ZM153.979 155.156C153.979 154.506 154.506 153.961 155.174 153.961H174.861C175.512 153.961 176.057 154.488 176.057 155.156V174.844C176.057 175.494 175.529 176.039 174.861 176.039H155.156C154.506 176.039 153.961 175.512 153.961 174.844V155.156H153.979Z" fill="#668EF3"/>
<path d="M163.77 134.186V141.639C163.77 142.324 164.314 142.869 165 142.869C165.686 142.869 166.23 142.324 166.23 141.639V134.186C168.199 133.641 169.641 131.848 169.641 129.721C169.641 127.172 167.566 125.08 165 125.08C162.434 125.08 160.359 127.154 160.359 129.721C160.359 131.848 161.801 133.658 163.77 134.186ZM165 127.541C166.195 127.541 167.18 128.525 167.18 129.721C167.18 130.916 166.195 131.9 165 131.9C163.805 131.9 162.82 130.916 162.82 129.721C162.82 128.525 163.805 127.541 165 127.541Z" fill="#414CA9"/>
<path d="M178.852 125.08C176.303 125.08 174.211 127.154 174.211 129.721C174.211 131.848 175.652 133.641 177.621 134.186V141.639C177.621 142.324 178.166 142.869 178.852 142.869C179.537 142.869 180.082 142.324 180.082 141.639V134.186C182.051 133.641 183.492 131.848 183.492 129.721C183.475 127.172 181.4 125.08 178.852 125.08ZM178.852 131.9C177.656 131.9 176.672 130.916 176.672 129.721C176.672 128.525 177.656 127.541 178.852 127.541C180.047 127.541 181.031 128.525 181.031 129.721C181.031 130.916 180.047 131.9 178.852 131.9Z" fill="#414CA9"/>
<path d="M149.936 134.186V141.639C149.936 142.324 150.48 142.869 151.166 142.869C151.852 142.869 152.396 142.324 152.396 141.639V134.186C154.365 133.641 155.807 131.848 155.807 129.721C155.807 127.172 153.732 125.08 151.166 125.08C148.6 125.08 146.525 127.154 146.525 129.721C146.525 131.848 147.967 133.658 149.936 134.186ZM151.166 127.541C152.361 127.541 153.346 128.525 153.346 129.721C153.346 130.916 152.361 131.9 151.166 131.9C149.971 131.9 148.986 130.916 148.986 129.721C148.986 128.525 149.953 127.541 151.166 127.541Z" fill="#414CA9"/>
<path d="M166.23 195.814V188.361C166.23 187.676 165.686 187.131 165 187.131C164.314 187.131 163.77 187.676 163.77 188.361V195.814C161.801 196.359 160.359 198.152 160.359 200.279C160.359 202.828 162.434 204.92 165 204.92C167.566 204.92 169.641 202.846 169.641 200.279C169.641 198.152 168.199 196.342 166.23 195.814ZM165 202.459C163.805 202.459 162.82 201.475 162.82 200.279C162.82 199.084 163.805 198.1 165 198.1C166.195 198.1 167.18 199.084 167.18 200.279C167.18 201.475 166.195 202.459 165 202.459Z" fill="#414CA9"/>
<path d="M180.082 195.814V188.361C180.082 187.676 179.537 187.131 178.852 187.131C178.166 187.131 177.621 187.676 177.621 188.361V195.814C175.652 196.359 174.211 198.152 174.211 200.279C174.211 202.828 176.285 204.92 178.852 204.92C181.418 204.92 183.492 202.846 183.492 200.279C183.475 198.152 182.033 196.342 180.082 195.814ZM178.852 202.459C177.656 202.459 176.672 201.475 176.672 200.279C176.672 199.084 177.656 198.1 178.852 198.1C180.047 198.1 181.031 199.084 181.031 200.279C181.031 201.475 180.047 202.459 178.852 202.459Z" fill="#414CA9"/>
<path d="M152.396 195.814V188.361C152.396 187.676 151.852 187.131 151.166 187.131C150.48 187.131 149.936 187.676 149.936 188.361V195.814C147.967 196.359 146.525 198.152 146.525 200.279C146.525 202.828 148.6 204.92 151.166 204.92C153.732 204.92 155.807 202.846 155.807 200.279C155.789 198.152 154.348 196.342 152.396 195.814ZM151.166 202.459C149.971 202.459 148.986 201.475 148.986 200.279C148.986 199.084 149.971 198.1 151.166 198.1C152.361 198.1 153.346 199.084 153.346 200.279C153.346 201.475 152.361 202.459 151.166 202.459Z" fill="#414CA9"/>
<path d="M200.279 160.359C198.152 160.359 196.359 161.801 195.814 163.77H188.361C187.676 163.77 187.131 164.314 187.131 165C187.131 165.686 187.676 166.23 188.361 166.23H195.814C196.359 168.199 198.152 169.641 200.279 169.641C202.828 169.641 204.92 167.566 204.92 165C204.92 162.434 202.828 160.359 200.279 160.359ZM200.279 167.18C199.084 167.18 198.1 166.195 198.1 165C198.1 163.805 199.084 162.82 200.279 162.82C201.475 162.82 202.459 163.805 202.459 165C202.459 166.195 201.475 167.18 200.279 167.18Z" fill="#414CA9"/>
<path d="M200.279 174.211C198.152 174.211 196.359 175.652 195.814 177.621H188.361C187.676 177.621 187.131 178.166 187.131 178.852C187.131 179.537 187.676 180.082 188.361 180.082H195.814C196.359 182.051 198.152 183.492 200.279 183.492C202.828 183.492 204.92 181.418 204.92 178.852C204.92 176.285 202.828 174.211 200.279 174.211ZM200.279 181.014C199.084 181.014 198.1 180.029 198.1 178.834C198.1 177.639 199.084 176.654 200.279 176.654C201.475 176.654 202.459 177.639 202.459 178.834C202.459 180.029 201.475 181.014 200.279 181.014Z" fill="#414CA9"/>
<path d="M188.361 152.396H195.814C196.359 154.365 198.152 155.807 200.279 155.807C202.828 155.807 204.92 153.732 204.92 151.166C204.92 148.6 202.846 146.525 200.279 146.525C198.152 146.525 196.359 147.967 195.814 149.936H188.361C187.676 149.936 187.131 150.48 187.131 151.166C187.131 151.852 187.676 152.396 188.361 152.396ZM200.279 148.986C201.475 148.986 202.459 149.971 202.459 151.166C202.459 152.361 201.475 153.346 200.279 153.346C199.084 153.346 198.1 152.361 198.1 151.166C198.1 149.971 199.084 148.986 200.279 148.986Z" fill="#414CA9"/>
<path d="M141.639 163.77H134.186C133.641 161.801 131.848 160.359 129.721 160.359C127.172 160.359 125.08 162.434 125.08 165C125.08 167.566 127.154 169.641 129.721 169.641C131.848 169.641 133.641 168.199 134.186 166.23H141.639C142.324 166.23 142.869 165.686 142.869 165C142.869 164.314 142.324 163.77 141.639 163.77ZM129.721 167.18C128.525 167.18 127.541 166.195 127.541 165C127.541 163.805 128.525 162.82 129.721 162.82C130.916 162.82 131.9 163.805 131.9 165C131.9 166.195 130.916 167.18 129.721 167.18Z" fill="#414CA9"/>
<path d="M141.639 177.621H134.186C133.641 175.652 131.848 174.211 129.721 174.211C127.172 174.211 125.08 176.285 125.08 178.852C125.08 181.418 127.154 183.492 129.721 183.492C131.848 183.492 133.641 182.051 134.186 180.082H141.639C142.324 180.082 142.869 179.537 142.869 178.852C142.869 178.166 142.324 177.621 141.639 177.621ZM129.721 181.014C128.525 181.014 127.541 180.029 127.541 178.834C127.541 177.639 128.525 176.654 129.721 176.654C130.916 176.654 131.9 177.639 131.9 178.834C131.9 180.029 130.916 181.014 129.721 181.014Z" fill="#414CA9"/>
<path d="M141.639 149.936H134.186C133.641 147.967 131.848 146.525 129.721 146.525C127.172 146.525 125.08 148.6 125.08 151.166C125.08 153.732 127.154 155.807 129.721 155.807C131.848 155.807 133.641 154.365 134.186 152.396H141.639C142.324 152.396 142.869 151.852 142.869 151.166C142.869 150.48 142.324 149.936 141.639 149.936ZM129.721 153.328C128.525 153.328 127.541 152.344 127.541 151.148C127.541 149.953 128.525 148.969 129.721 148.969C130.916 148.969 131.9 149.953 131.9 151.148C131.9 152.344 130.916 153.328 129.721 153.328Z" fill="#414CA9"/>
<path d="M320.982 133.957H260.584C257.701 133.957 255.363 136.295 255.363 139.195V148.16H326.203V139.195C326.203 136.295 323.865 133.957 320.982 133.957ZM264.662 143.783C263.15 143.783 261.938 142.57 261.938 141.059C261.938 139.547 263.15 138.334 264.662 138.334C266.174 138.334 267.387 139.547 267.387 141.059C267.387 142.57 266.156 143.783 264.662 143.783ZM275.596 143.783C274.084 143.783 272.871 142.57 272.871 141.059C272.871 139.547 274.084 138.334 275.596 138.334C277.107 138.334 278.32 139.547 278.32 141.059C278.32 142.57 277.09 143.783 275.596 143.783Z" fill="#668EF3"/>
<path d="M255.363 153.504H261.041V155.965C261.041 157.213 262.043 158.215 263.291 158.215C264.539 158.215 265.541 157.213 265.541 155.965V153.504H275.297L286.002 168.287L277.354 177.129L275.613 175.424V187.904H255.363V190.822C255.363 193.705 257.701 196.061 260.584 196.061H320.965C323.848 196.061 326.186 193.723 326.186 190.822V150.604H255.346V153.504H255.363ZM289.992 155.771H314.953C315.639 155.771 316.184 156.316 316.184 157.002C316.184 157.687 315.639 158.232 314.953 158.232H289.992C289.307 158.232 288.762 157.687 288.762 157.002C288.762 156.316 289.324 155.771 289.992 155.771ZM289.992 162.627H314.953C315.639 162.627 316.184 163.172 316.184 163.857C316.184 164.543 315.639 165.088 314.953 165.088H289.992C289.307 165.088 288.762 164.543 288.762 163.857C288.762 163.172 289.324 162.627 289.992 162.627ZM289.992 169.465H314.953C315.639 169.465 316.184 170.01 316.184 170.695C316.184 171.381 315.639 171.926 314.953 171.926H289.992C289.307 171.926 288.762 171.381 288.762 170.695C288.762 170.01 289.324 169.465 289.992 169.465ZM289.992 176.32H314.953C315.639 176.32 316.184 176.865 316.184 177.551C316.184 178.236 315.639 178.781 314.953 178.781H289.992C289.307 178.781 288.762 178.236 288.762 177.551C288.762 176.865 289.324 176.32 289.992 176.32ZM289.992 183.176H314.953C315.639 183.176 316.184 183.721 316.184 184.406C316.184 185.092 315.639 185.637 314.953 185.637H289.992C289.307 185.637 288.762 185.092 288.762 184.406C288.762 183.721 289.324 183.176 289.992 183.176Z" fill="#414CA9"/>
<path d="M273.152 185.426V169.553L277.318 173.631L282.785 168.041L274.031 155.965H267.984C267.984 158.566 265.875 160.676 263.273 160.676C260.672 160.676 258.562 158.566 258.562 155.965H252.533L243.779 168.041L249.246 173.631L253.412 169.553V185.426H273.152ZM260.777 168.287H265.822C266.508 168.287 267.053 168.832 267.053 169.518C267.053 170.203 266.508 170.748 265.822 170.748H260.777C260.092 170.748 259.547 170.203 259.547 169.518C259.547 168.832 260.092 168.287 260.777 168.287Z" fill="#668EF3"/>
<path d="M439.928 153.1H370.072C368.49 153.1 367.207 154.383 367.207 155.965V196.395C367.207 197.977 368.49 199.26 370.072 199.26H439.91C441.492 199.26 442.775 197.977 442.775 196.395V155.965C442.793 154.383 441.51 153.1 439.928 153.1ZM423.457 157.793H430.137V162.979H423.457V157.793ZM379.635 157.793H419.941V162.979H379.635V157.793ZM384.961 191.543C378.404 191.543 373.096 186.234 373.096 179.678C373.096 173.121 378.404 167.812 384.961 167.812C391.518 167.812 396.826 173.121 396.826 179.678C396.826 186.234 391.518 191.543 384.961 191.543ZM409.518 189.521H400.5V185.479H409.518V189.521ZM409.518 181.699H400.5V177.656H409.518V181.699ZM409.518 173.877H400.5V169.834H409.518V173.877ZM425.039 191.543C418.482 191.543 413.174 186.234 413.174 179.678C413.174 173.121 418.482 167.812 425.039 167.812C431.596 167.812 436.904 173.121 436.904 179.678C436.904 186.234 431.596 191.543 425.039 191.543Z" fill="#414CA9"/>
<path d="M429.258 151.342H431.016V134.643C431.016 134.15 430.629 133.764 430.137 133.764H419.361V135.521H429.258V151.342Z" fill="#414CA9"/>
<path d="M380.514 135.521H390.656V133.764H379.635C379.143 133.764 378.756 134.15 378.756 134.643V151.342H380.514V135.521Z" fill="#414CA9"/>
<path d="M393.486 138.58H416.514C417.111 138.58 417.604 138.088 417.604 137.49V131.812C417.604 131.215 417.111 130.723 416.514 130.723H393.486C392.889 130.723 392.396 131.215 392.396 131.812V137.49C392.396 138.088 392.889 138.58 393.486 138.58Z" fill="#668EF3"/>
<path d="M384.961 173.613C381.604 173.613 378.896 176.338 378.896 179.678C378.896 183.018 381.604 185.742 384.961 185.742C388.318 185.742 391.025 183.018 391.025 179.678C391.025 176.338 388.301 173.613 384.961 173.613Z" fill="#668EF3"/>
<path d="M425.039 173.613C421.682 173.613 418.975 176.338 418.975 179.678C418.975 183.018 421.699 185.742 425.039 185.742C428.396 185.742 431.104 183.018 431.104 179.678C431.104 176.338 428.396 173.613 425.039 173.613Z" fill="#668EF3"/>
<path d="M561.229 150.516H511.096L509.76 143.871L508.635 138.229C508.195 136.031 506.262 134.449 504.029 134.449H490.318C489.018 134.449 487.84 134.977 486.996 135.82C486.152 136.682 485.625 137.859 485.625 139.143C485.625 141.744 487.734 143.854 490.336 143.854H500.18L509.092 187.781C510.832 186.111 513.17 185.162 515.648 185.162C515.877 185.162 516.123 185.18 516.352 185.18H516.387C516.475 185.18 516.545 185.197 516.633 185.197C516.721 185.197 516.809 185.215 516.896 185.232L516.984 185.25L517.107 185.268C517.16 185.285 517.23 185.285 517.283 185.303L517.336 185.32C517.406 185.338 517.477 185.338 517.529 185.355C517.635 185.373 517.74 185.408 517.828 185.426L517.898 185.443C517.986 185.461 518.18 185.514 518.18 185.514L517.371 181.787H557.537C559.102 181.787 560.437 180.645 560.666 179.098L564.357 154.119C564.639 152.238 563.162 150.516 561.229 150.516Z" fill="#414CA9"/>
<path d="M542.666 191.209H528.217C526.881 191.209 525.545 191.033 524.262 190.717C524.824 191.947 525.123 193.283 525.123 194.689C525.123 196.078 524.824 197.414 524.279 198.627C525.475 198.328 526.705 198.188 527.953 198.188H542.648C543.984 198.188 545.32 198.363 546.604 198.68C546.041 197.449 545.742 196.113 545.742 194.707C545.742 193.301 546.041 191.947 546.604 190.734C545.338 191.033 544.02 191.209 542.666 191.209Z" fill="#414CA9"/>
<path d="M519.287 188.66C519.129 188.572 518.988 188.484 518.83 188.396H518.812C518.479 188.221 518.109 188.08 517.74 187.957C517.67 187.939 517.6 187.922 517.529 187.904C517.459 187.887 517.371 187.869 517.301 187.852C517.213 187.834 517.125 187.816 517.037 187.799C516.967 187.781 516.914 187.781 516.844 187.764C516.773 187.746 516.703 187.746 516.633 187.729C516.545 187.711 516.457 187.711 516.369 187.693C516.316 187.693 516.246 187.676 516.176 187.676C516 187.658 515.807 187.658 515.631 187.658C513.135 187.658 510.955 188.941 509.689 190.893C508.986 191.982 508.582 193.301 508.582 194.707C508.582 194.795 508.582 194.883 508.582 194.971C508.582 195.059 508.6 195.129 508.6 195.199C508.6 195.287 508.617 195.393 508.635 195.498C508.635 195.533 508.635 195.568 508.652 195.604C508.67 195.674 508.67 195.762 508.687 195.832V195.867C508.705 195.973 508.723 196.061 508.74 196.166C508.758 196.271 508.793 196.377 508.811 196.482C508.863 196.693 508.934 196.904 509.004 197.115C509.074 197.291 509.145 197.467 509.215 197.643C509.936 199.242 511.236 200.508 512.854 201.193C512.871 201.193 512.871 201.211 512.889 201.211C512.941 201.229 513.012 201.264 513.064 201.281C513.135 201.316 513.205 201.334 513.275 201.352C513.469 201.422 513.662 201.492 513.873 201.545C513.996 201.58 514.102 201.598 514.207 201.615C514.313 201.633 514.4 201.65 514.488 201.668C514.488 201.668 514.488 201.668 514.506 201.668C514.594 201.686 514.699 201.703 514.787 201.703C514.928 201.721 515.051 201.738 515.191 201.738C515.262 201.738 515.332 201.738 515.385 201.738C515.473 201.738 515.543 201.738 515.631 201.738C515.719 201.738 515.807 201.738 515.895 201.738C515.965 201.738 516.053 201.738 516.123 201.721C516.193 201.721 516.264 201.703 516.352 201.703C516.369 201.703 516.387 201.703 516.422 201.703C516.492 201.703 516.562 201.686 516.633 201.686C516.721 201.668 516.791 201.668 516.879 201.65C517.125 201.615 517.354 201.563 517.582 201.492C517.652 201.475 517.74 201.439 517.811 201.422C517.898 201.404 517.986 201.369 518.074 201.334C518.145 201.316 518.197 201.281 518.268 201.264C518.32 201.246 518.373 201.211 518.426 201.193C518.461 201.176 518.514 201.158 518.549 201.141C518.742 201.053 518.918 200.965 519.111 200.859C519.182 200.824 519.234 200.789 519.305 200.736C519.305 200.736 519.322 200.736 519.322 200.719C521.344 199.488 522.697 197.256 522.697 194.707C522.68 192.141 521.326 189.908 519.287 188.66ZM510.252 199.225C510.287 199.277 510.322 199.312 510.357 199.348C510.428 199.436 510.516 199.506 510.586 199.594C510.27 199.26 509.971 198.908 509.725 198.521C509.777 198.592 509.812 198.662 509.865 198.732C509.988 198.908 510.111 199.066 510.252 199.225ZM509.707 198.504C509.602 198.346 509.514 198.187 509.426 198.029C509.461 198.082 509.496 198.152 509.531 198.205C509.584 198.311 509.637 198.398 509.707 198.504ZM509.391 197.959C509.373 197.941 509.373 197.906 509.355 197.889C509.355 197.906 509.373 197.941 509.391 197.959ZM510.656 199.682C510.727 199.752 510.797 199.822 510.885 199.893C510.797 199.822 510.727 199.752 510.656 199.682ZM512.01 200.736C511.887 200.666 511.781 200.596 511.658 200.508C511.781 200.596 511.904 200.666 512.01 200.736ZM511.588 200.455C511.482 200.385 511.377 200.297 511.271 200.227C511.377 200.314 511.482 200.385 511.588 200.455ZM511.271 200.209C511.236 200.191 511.219 200.156 511.184 200.139C511.201 200.174 511.236 200.191 511.271 200.209ZM511.043 200.033C511.008 199.998 510.955 199.963 510.92 199.928C510.955 199.963 511.008 199.998 511.043 200.033ZM512.467 200.982C512.572 201.035 512.678 201.088 512.766 201.123C512.678 201.088 512.572 201.035 512.467 200.982ZM515.631 197.52C514.26 197.52 513.117 196.553 512.871 195.252C512.836 195.076 512.818 194.883 512.818 194.707C512.818 193.143 514.084 191.895 515.631 191.895C517.002 191.895 518.127 192.861 518.391 194.162C518.426 194.338 518.443 194.531 518.443 194.725C518.443 196.254 517.195 197.52 515.631 197.52Z" fill="#668EF3"/>
<path d="M562.301 194.426C562.301 194.355 562.301 194.285 562.283 194.232C562.283 194.197 562.283 194.145 562.266 194.109C562.266 194.021 562.248 193.934 562.248 193.863V193.846C562.248 193.811 562.248 193.775 562.23 193.758C562.195 193.512 562.16 193.283 562.09 193.055C562.072 193.002 562.055 192.949 562.037 192.879C562.02 192.809 562.002 192.738 561.967 192.668C561.949 192.598 561.914 192.527 561.896 192.457C561.879 192.387 561.844 192.316 561.826 192.246C561.809 192.176 561.773 192.123 561.756 192.053C561.721 191.965 561.686 191.895 561.65 191.807C561.615 191.754 561.598 191.684 561.562 191.631C561.527 191.561 561.492 191.49 561.457 191.437C561.439 191.385 561.404 191.35 561.387 191.297C561.299 191.139 561.211 190.998 561.105 190.857C561.07 190.787 561.018 190.734 560.982 190.664C560.982 190.664 560.982 190.664 560.982 190.646L560.965 190.629C560.93 190.576 560.895 190.523 560.842 190.471L560.824 190.453C560.789 190.4 560.754 190.348 560.701 190.312C560.666 190.26 560.613 190.207 560.578 190.154L560.561 190.137C560.49 190.066 560.42 189.979 560.35 189.908C560.332 189.891 560.314 189.873 560.297 189.855C560.279 189.838 560.262 189.838 560.262 189.82C560.244 189.803 560.227 189.768 560.191 189.75C560.139 189.697 560.086 189.645 560.033 189.609C559.998 189.574 559.963 189.539 559.928 189.504C559.857 189.434 559.77 189.381 559.699 189.311C559.629 189.24 559.541 189.187 559.471 189.135C559.453 189.117 559.436 189.117 559.418 189.1C559.383 189.064 559.348 189.047 559.313 189.029C559.084 188.871 558.838 188.713 558.592 188.572C558.486 188.52 558.398 188.467 558.293 188.414C558.029 188.291 557.766 188.186 557.502 188.098C557.449 188.08 557.396 188.063 557.344 188.045C557.273 188.027 557.203 187.992 557.115 187.975C557.045 187.957 556.957 187.939 556.887 187.922C556.834 187.904 556.781 187.904 556.729 187.887C556.693 187.887 556.658 187.869 556.623 187.869C556.588 187.869 556.553 187.852 556.5 187.852H556.482C556.43 187.852 556.377 187.834 556.324 187.834C556.236 187.816 556.166 187.816 556.078 187.799C556.043 187.799 555.99 187.781 555.955 187.781C555.937 187.781 555.902 187.781 555.885 187.781C555.814 187.781 555.744 187.764 555.674 187.764C555.621 187.764 555.568 187.764 555.516 187.764C555.428 187.764 555.34 187.764 555.252 187.764C555.164 187.764 555.076 187.764 554.988 187.764C554.936 187.764 554.883 187.764 554.83 187.764C554.742 187.764 554.654 187.781 554.566 187.781C554.479 187.781 554.373 187.799 554.285 187.816C554.232 187.816 554.18 187.834 554.127 187.834C553.934 187.869 553.758 187.904 553.582 187.939C553.512 187.957 553.459 187.975 553.406 187.992C553.318 188.01 553.248 188.045 553.16 188.063C553.055 188.098 552.949 188.133 552.844 188.168C552.615 188.256 552.387 188.361 552.158 188.467C552.07 188.502 551.982 188.555 551.912 188.59C551.807 188.643 551.719 188.695 551.613 188.766C549.574 189.996 548.221 192.246 548.221 194.795C548.221 197.344 549.574 199.594 551.613 200.824C551.666 200.859 551.719 200.877 551.771 200.912C551.807 200.93 551.859 200.965 551.895 200.982C551.947 201.018 552 201.035 552.053 201.07C552.123 201.105 552.193 201.141 552.264 201.176C552.316 201.211 552.387 201.229 552.439 201.264C552.527 201.299 552.615 201.334 552.703 201.369C552.773 201.404 552.844 201.422 552.914 201.457C552.914 201.457 552.914 201.457 552.932 201.457C553.002 201.475 553.055 201.492 553.125 201.527C553.213 201.545 553.283 201.58 553.371 201.598C553.441 201.615 553.512 201.633 553.582 201.65C553.635 201.668 553.705 201.686 553.758 201.686C553.811 201.703 553.881 201.703 553.934 201.721C554.004 201.738 554.057 201.738 554.127 201.756C554.18 201.756 554.232 201.773 554.285 201.773C554.32 201.773 554.355 201.791 554.408 201.791C554.461 201.791 554.514 201.809 554.566 201.809C554.654 201.826 554.742 201.826 554.83 201.826C554.883 201.826 554.936 201.826 554.988 201.826C555.076 201.826 555.164 201.826 555.252 201.826C555.34 201.826 555.428 201.826 555.516 201.826C555.568 201.826 555.621 201.826 555.674 201.826C555.744 201.826 555.814 201.826 555.885 201.809C555.902 201.809 555.937 201.809 555.955 201.809C555.99 201.809 556.043 201.809 556.078 201.791C556.113 201.791 556.166 201.773 556.201 201.773C556.236 201.773 556.289 201.756 556.324 201.756C556.377 201.756 556.43 201.738 556.482 201.738H556.5C556.535 201.738 556.57 201.721 556.623 201.721C556.658 201.721 556.693 201.703 556.729 201.703C556.816 201.686 556.922 201.668 557.01 201.633C557.08 201.615 557.15 201.598 557.221 201.58C557.309 201.563 557.414 201.527 557.502 201.492C557.572 201.475 557.643 201.439 557.73 201.404C558.047 201.281 558.363 201.141 558.645 200.982C558.68 200.965 558.715 200.947 558.75 200.93C558.891 200.842 559.049 200.754 559.189 200.648C559.242 200.613 559.295 200.578 559.348 200.543C559.383 200.525 559.418 200.49 559.453 200.473C559.488 200.455 559.523 200.42 559.559 200.402C559.629 200.35 559.717 200.279 559.787 200.227C559.84 200.174 559.893 200.139 559.945 200.086C559.98 200.051 560.016 200.016 560.051 199.98C560.086 199.945 560.139 199.91 560.174 199.857C560.191 199.84 560.209 199.822 560.244 199.787C560.279 199.752 560.314 199.699 560.367 199.664C560.402 199.629 560.437 199.576 560.49 199.541C560.525 199.506 560.561 199.453 560.596 199.418C560.631 199.383 560.648 199.348 560.684 199.313C560.736 199.242 560.807 199.172 560.859 199.084C560.895 199.031 560.93 198.979 560.982 198.926C561 198.908 561 198.891 561.018 198.873C561.053 198.82 561.088 198.785 561.105 198.732C561.158 198.645 561.211 198.574 561.264 198.486C561.281 198.451 561.316 198.416 561.334 198.363C561.352 198.346 561.352 198.328 561.369 198.311C561.404 198.258 561.422 198.205 561.457 198.17C561.492 198.117 561.51 198.064 561.527 198.012C561.65 197.766 561.773 197.502 561.879 197.221C561.896 197.168 561.914 197.115 561.932 197.062C561.949 197.027 561.967 196.975 561.967 196.939C561.984 196.887 562.002 196.834 562.02 196.799C562.037 196.746 562.055 196.693 562.055 196.658C562.072 196.623 562.072 196.588 562.09 196.553C562.107 196.5 562.107 196.465 562.125 196.412C562.143 196.359 562.16 196.307 562.16 196.236C562.178 196.148 562.195 196.078 562.213 195.99C562.23 195.92 562.23 195.85 562.248 195.797C562.248 195.744 562.266 195.709 562.266 195.656C562.283 195.568 562.283 195.498 562.283 195.41C562.301 195.287 562.301 195.164 562.301 195.041C562.301 195.006 562.301 194.971 562.301 194.936C562.301 194.9 562.301 194.848 562.301 194.813C562.301 194.742 562.301 194.672 562.301 194.584C562.301 194.461 562.301 194.443 562.301 194.426ZM555.27 197.52C553.705 197.52 552.457 196.254 552.457 194.707C552.457 193.143 553.723 191.895 555.27 191.895C556.834 191.895 558.082 193.16 558.082 194.707C558.082 196.254 556.816 197.52 555.27 197.52Z" fill="#668EF3"/>
<path d="M548.713 128.262H524.982V148.072H548.713V128.262Z" fill="#668EF3"/>
<path d="M522.521 134.467H516.053V148.055H522.521V134.467Z" fill="#414CA9"/>
<path d="M557.643 134.467H551.174V148.055H557.643V134.467Z" fill="#414CA9"/>
<path d="M20.7949 395.279C21.8848 395.279 22.957 395.156 23.9766 394.928C23.3789 394.049 22.6934 393.205 21.9375 392.449L21.4102 391.922C20.9707 391.482 20.4258 391.201 19.8809 391.131C17.7891 390.832 15.9082 389.9 14.4141 388.406C12.6035 386.596 11.6016 384.17 11.6191 381.604C11.6191 379.037 12.6387 376.629 14.4492 374.818C16.2422 373.025 18.6504 372.059 21.1992 372.059C23.6426 372.059 25.9805 372.973 27.7559 374.643C29.3379 376.119 30.3398 378.035 30.6738 380.18C30.7793 380.83 31.043 381.41 31.4648 381.832L31.5879 381.955C32.502 382.869 33.5039 383.66 34.5762 384.328C34.8047 383.309 34.9277 382.254 34.9277 381.164C34.9277 373.359 28.5996 367.049 20.8125 367.049C12.9902 367.031 6.67969 373.359 6.67969 381.147C6.67969 388.951 12.9902 395.279 20.7949 395.279Z" fill="#668EF3"/>
<path d="M60.1695 426.322L60.2925 426.445C61.1011 427.254 61.6109 428.326 61.7866 429.469C62.0152 430.98 62.7359 432.439 63.9488 433.582C66.7261 436.184 71.1382 436.131 73.8277 433.441C76.6226 430.664 76.6402 426.147 73.8452 423.352C72.7027 422.209 71.2788 421.541 69.7847 421.33C68.6773 421.172 67.6402 420.645 66.8491 419.836L66.3042 419.309C65.2671 418.272 64.3531 417.111 63.5796 415.881C61.6812 412.84 60.6441 409.307 60.6441 405.668V404.35C60.6441 400.711 61.6812 397.178 63.5796 394.119C64.3531 392.889 65.2495 391.746 66.3042 390.709L66.7085 390.305C67.5698 389.443 68.6597 388.846 69.8726 388.67C71.3843 388.441 72.8433 387.721 73.9859 386.508C76.5874 383.73 76.5347 379.318 73.8452 376.611C71.0679 373.816 66.5327 373.799 63.7554 376.594C62.648 377.701 61.98 379.072 61.7515 380.514C61.5581 381.709 60.9956 382.834 60.1343 383.695C58.939 384.891 57.6206 385.91 56.1792 386.736C55.4409 387.176 54.6675 387.563 53.8589 387.879C51.5386 388.846 49.0425 389.355 46.4761 389.355H43.4175C39.9898 389.355 36.6499 388.441 33.732 386.736C32.3081 385.91 30.9722 384.891 29.7769 383.695L29.7066 383.555C28.898 382.746 28.3882 381.674 28.2124 380.549C27.9839 379.037 27.2632 377.578 26.0503 376.436C23.273 373.816 18.8784 373.887 16.1714 376.559C13.3765 379.336 13.3589 383.854 16.1538 386.648C17.2964 387.791 18.7202 388.459 20.2144 388.67C21.3218 388.828 22.3589 389.355 23.1499 390.164L23.6948 390.709C24.732 391.746 25.646 392.906 26.4195 394.119C28.3179 397.16 29.355 400.693 29.355 404.35C29.355 407.338 28.7573 410.256 27.6499 412.945C27.2456 413.93 26.771 414.879 26.2261 415.793C25.2769 417.393 24.1167 418.887 22.7808 420.24L22.6753 420.293C22.1128 420.855 21.3745 421.207 20.5835 421.277C18.896 421.418 17.2437 422.156 15.9956 423.492C13.3941 426.27 13.4468 430.682 16.1363 433.389C18.9136 436.184 23.4488 436.201 26.2261 433.406C27.4566 432.176 28.1421 430.611 28.2827 429.012C28.353 428.203 28.7046 427.465 29.2671 426.885L29.8296 426.322C31.0249 425.127 32.3433 424.107 33.7847 423.281C36.7027 421.576 40.0425 420.662 43.4702 420.662H46.5288C49.9566 420.662 53.2964 421.576 56.2144 423.281C57.6558 424.107 58.9741 425.127 60.1695 426.322ZM44.9995 411.152C41.607 411.152 38.8472 408.393 38.8472 405C38.8472 401.607 41.607 398.848 44.9995 398.848C48.3921 398.848 51.1519 401.607 51.1519 405C51.1519 408.393 48.3921 411.152 44.9995 411.152Z" fill="#414CA9"/>
<path d="M58.4297 381.938C58.9219 381.445 59.2383 380.813 59.3437 380.109C59.6602 378.088 60.5918 376.277 62.0332 374.836C63.8437 373.025 66.2519 372.023 68.8008 372.023C71.3672 372.023 73.793 373.025 75.6035 374.854C77.3437 376.611 78.3281 378.967 78.3633 381.463C78.3984 383.977 77.4844 386.35 75.7793 388.16C74.2852 389.742 72.3691 390.744 70.2246 391.078C69.5918 391.184 68.9414 391.518 68.4316 392.027L68.0273 392.432C67.2715 393.188 66.5859 394.014 65.9883 394.91C67.0078 395.139 68.0801 395.262 69.1699 395.262C76.9746 395.262 83.2852 388.934 83.2852 381.146C83.2852 373.342 76.957 367.031 69.1699 367.031C61.3652 367.031 55.0547 373.359 55.0547 381.146C55.0547 382.236 55.1777 383.291 55.4062 384.311C56.5137 383.643 57.5332 382.852 58.4297 381.938Z" fill="#668EF3"/>
<path d="M31.5703 428.063L31.0078 428.625C30.8496 428.783 30.7617 428.994 30.7266 429.24C30.5332 431.473 29.5488 433.582 27.9492 435.164C26.1387 436.975 23.7305 437.977 21.1816 437.977C18.5977 437.977 16.1895 436.975 14.3789 435.146C12.6387 433.371 11.6543 431.033 11.6191 428.537C11.584 426.023 12.498 423.65 14.2031 421.84C15.8379 420.117 18.0352 419.045 20.3906 418.852C20.584 418.834 20.7949 418.746 20.9355 418.588L21.0059 418.518C22.043 417.48 22.9746 416.32 23.7656 415.072C22.8164 414.861 21.8145 414.756 20.7949 414.756C12.9902 414.756 6.67969 421.084 6.67969 428.871C6.67969 436.658 13.0078 442.986 20.7949 442.986C28.5996 442.986 34.9102 436.658 34.9102 428.871C34.9102 427.781 34.7871 426.727 34.5586 425.707C33.4863 426.357 32.4844 427.148 31.5703 428.063Z" fill="#668EF3"/>
<path d="M69.2051 414.721C68.1152 414.721 67.043 414.844 66.0234 415.09C66.6211 415.969 67.3066 416.813 68.0625 417.568L68.5898 418.096C69.0293 418.535 69.5742 418.816 70.1191 418.887C72.2109 419.168 74.0918 420.117 75.5859 421.611C77.3965 423.422 78.3984 425.848 78.3809 428.414C78.3809 430.98 77.3613 433.389 75.5508 435.199C73.7578 436.975 71.3496 437.959 68.8008 437.959C67.5703 437.959 66.375 437.73 65.2676 437.291C64.1602 436.852 63.1406 436.201 62.2441 435.375C60.6621 433.881 59.6602 431.982 59.3262 429.838C59.2207 429.187 58.957 428.625 58.5352 428.186L58.4121 428.063C57.498 427.148 56.4961 426.357 55.4238 425.689C55.1953 426.709 55.0723 427.764 55.0723 428.854C55.0723 436.658 61.4004 442.969 69.1875 442.969C76.9922 442.969 83.3027 436.641 83.3027 428.854C83.3027 421.066 77.0098 414.721 69.2051 414.721Z" fill="#668EF3"/>
<path d="M300.592 383.66V381.146C300.592 378.879 298.764 377.051 296.496 377.051H273.504C271.236 377.051 269.408 378.879 269.408 381.146V383.66H300.592Z" fill="#414CA9"/>
<path d="M269.408 426.34V428.854C269.408 431.121 271.236 432.949 273.504 432.949H296.496C298.764 432.949 300.592 431.121 300.592 428.854V426.34H269.408Z" fill="#414CA9"/>
<path d="M300.574 386.121H269.408V423.879H300.574V386.121Z" fill="#668EF3"/>
<path d="M264.029 416.443H253.887C253.201 416.443 252.656 416.988 252.656 417.674V429.398C250.828 430.014 249.492 431.754 249.492 433.793C249.492 436.342 251.566 438.434 254.133 438.434C256.699 438.434 258.773 436.359 258.773 433.793C258.773 431.578 257.209 429.715 255.117 429.258V418.904H264.029C264.715 418.904 265.26 418.359 265.26 417.674C265.26 416.988 264.715 416.443 264.029 416.443ZM256.313 433.793C256.313 434.988 255.328 435.973 254.133 435.973C252.938 435.973 251.953 434.988 251.953 433.793C251.953 432.598 252.938 431.613 254.133 431.613C255.328 431.613 256.313 432.598 256.313 433.793Z" fill="#414CA9"/>
<path d="M264.029 391.096H255.117V380.742C257.191 380.285 258.773 378.422 258.773 376.207C258.773 373.658 256.699 371.566 254.133 371.566C251.566 371.566 249.492 373.658 249.492 376.207C249.492 378.246 250.828 379.986 252.656 380.602V392.326C252.656 393.012 253.201 393.557 253.887 393.557H264.029C264.715 393.557 265.26 393.012 265.26 392.326C265.26 391.641 264.715 391.096 264.029 391.096ZM251.953 376.207C251.953 375.012 252.938 374.027 254.133 374.027C255.328 374.027 256.313 375.012 256.313 376.207C256.313 377.402 255.328 378.387 254.133 378.387C252.938 378.387 251.953 377.402 251.953 376.207Z" fill="#414CA9"/>
<path d="M260.83 406.775C261.516 406.775 262.061 406.23 262.061 405.545C262.061 404.859 261.516 404.314 260.83 404.314H249.721C249.176 402.346 247.383 400.904 245.256 400.904C242.707 400.904 240.615 402.979 240.615 405.545C240.615 408.111 242.689 410.186 245.256 410.186C247.383 410.186 249.176 408.744 249.721 406.775H260.83ZM245.256 407.707C244.061 407.707 243.076 406.723 243.076 405.527C243.076 404.332 244.061 403.348 245.256 403.348C246.451 403.348 247.436 404.332 247.436 405.527C247.436 406.723 246.451 407.707 245.256 407.707Z" fill="#414CA9"/>
<path d="M317.344 429.398V417.674C317.344 416.988 316.799 416.443 316.113 416.443H305.971C305.285 416.443 304.74 416.988 304.74 417.674C304.74 418.359 305.285 418.904 305.971 418.904H314.883V429.258C312.809 429.715 311.227 431.578 311.227 433.793C311.227 436.342 313.301 438.434 315.867 438.434C318.434 438.434 320.508 436.359 320.508 433.793C320.508 431.754 319.172 430.014 317.344 429.398ZM315.867 435.973C314.672 435.973 313.688 434.988 313.688 433.793C313.688 432.598 314.672 431.613 315.867 431.613C317.063 431.613 318.047 432.598 318.047 433.793C318.047 434.988 317.063 435.973 315.867 435.973Z" fill="#414CA9"/>
<path d="M305.971 393.557H316.113C316.799 393.557 317.344 393.012 317.344 392.326V380.602C319.172 379.986 320.508 378.246 320.508 376.207C320.508 373.658 318.434 371.566 315.867 371.566C313.301 371.566 311.227 373.641 311.227 376.207C311.227 378.422 312.791 380.285 314.883 380.742V391.096H305.971C305.285 391.096 304.74 391.641 304.74 392.326C304.74 393.012 305.285 393.557 305.971 393.557ZM313.688 376.207C313.688 375.012 314.672 374.027 315.867 374.027C317.063 374.027 318.047 375.012 318.047 376.207C318.047 377.402 317.063 378.387 315.867 378.387C314.672 378.387 313.688 377.402 313.688 376.207Z" fill="#414CA9"/>
<path d="M324.744 400.904C322.617 400.904 320.824 402.346 320.279 404.314H309.17C308.484 404.314 307.939 404.859 307.939 405.545C307.939 406.23 308.484 406.775 309.17 406.775H320.279C320.824 408.744 322.617 410.186 324.744 410.186C327.293 410.186 329.385 408.111 329.385 405.545C329.385 402.979 327.311 400.904 324.744 400.904ZM324.744 407.707C323.549 407.707 322.564 406.723 322.564 405.527C322.564 404.332 323.549 403.348 324.744 403.348C325.939 403.348 326.924 404.332 326.924 405.527C326.924 406.723 325.939 407.707 324.744 407.707Z" fill="#414CA9"/>
<path d="M281.871 437.572C281.186 437.572 280.641 438.117 280.641 438.803V442.494H276.949C276.404 440.525 274.611 439.084 272.484 439.084C269.936 439.084 267.844 441.158 267.844 443.725C267.844 446.291 269.918 448.365 272.484 448.365C274.611 448.365 276.404 446.924 276.949 444.955H281.871C282.557 444.955 283.102 444.41 283.102 443.725V438.803C283.102 438.117 282.557 437.572 281.871 437.572ZM272.502 445.887C271.307 445.887 270.322 444.902 270.322 443.707C270.322 442.512 271.307 441.527 272.502 441.527C273.697 441.527 274.682 442.512 274.682 443.707C274.682 444.902 273.697 445.887 272.502 445.887Z" fill="#414CA9"/>
<path d="M297.498 439.084C295.371 439.084 293.578 440.525 293.033 442.494H289.342V438.803C289.342 438.117 288.797 437.572 288.111 437.572C287.426 437.572 286.881 438.117 286.881 438.803V443.725C286.881 444.41 287.426 444.955 288.111 444.955H293.033C293.578 446.924 295.371 448.365 297.498 448.365C300.047 448.365 302.139 446.291 302.139 443.725C302.139 441.158 300.064 439.084 297.498 439.084ZM297.498 445.887C296.303 445.887 295.318 444.902 295.318 443.707C295.318 442.512 296.303 441.527 297.498 441.527C298.693 441.527 299.678 442.512 299.678 443.707C299.678 444.902 298.711 445.887 297.498 445.887Z" fill="#414CA9"/>
<path d="M281.871 365.045H276.949C276.422 363.094 274.629 361.652 272.502 361.652C269.953 361.652 267.861 363.727 267.861 366.293C267.861 368.859 269.936 370.934 272.502 370.934C274.629 370.934 276.422 369.492 276.967 367.523H280.658V371.215C280.658 371.9 281.203 372.445 281.889 372.445C282.574 372.445 283.119 371.9 283.119 371.215V366.293C283.102 365.607 282.557 365.045 281.871 365.045ZM272.502 368.455C271.307 368.455 270.322 367.471 270.322 366.275C270.322 365.08 271.307 364.096 272.502 364.096C273.697 364.096 274.682 365.08 274.682 366.275C274.682 367.471 273.697 368.455 272.502 368.455Z" fill="#414CA9"/>
<path d="M297.498 361.652C295.371 361.652 293.578 363.094 293.033 365.062H288.111C287.426 365.062 286.881 365.607 286.881 366.293V371.215C286.881 371.9 287.426 372.445 288.111 372.445C288.797 372.445 289.342 371.9 289.342 371.215V367.523H293.033C293.578 369.492 295.371 370.934 297.498 370.934C300.047 370.934 302.139 368.859 302.139 366.293C302.139 363.727 300.064 361.652 297.498 361.652ZM297.498 368.455C296.303 368.455 295.318 367.471 295.318 366.275C295.318 365.08 296.303 364.096 297.498 364.096C298.693 364.096 299.678 365.08 299.678 366.275C299.678 367.471 298.711 368.455 297.498 368.455Z" fill="#414CA9"/>
<path d="M535.846 400.43C534.791 400.43 533.93 399.568 533.93 398.514C533.93 397.459 534.791 396.598 535.846 396.598C536.9 396.598 537.762 397.459 537.762 398.514C537.779 399.568 536.918 400.43 535.846 400.43Z" fill="#414CA9"/>
<path d="M525 404.297C523.928 404.297 523.084 403.436 523.084 402.381C523.084 401.326 523.945 400.465 525 400.465C526.055 400.465 526.916 401.326 526.916 402.381C526.916 403.436 526.055 404.279 525 404.297Z" fill="#414CA9"/>
<path d="M514.154 400.43C513.1 400.43 512.238 399.568 512.238 398.514C512.238 397.459 513.1 396.598 514.154 396.598C515.209 396.598 516.07 397.459 516.07 398.514C516.07 399.568 515.209 400.43 514.154 400.43Z" fill="#414CA9"/>
<path d="M547.816 400.008C547.816 409.482 542.051 417.604 533.824 421.049C533.262 421.277 532.682 421.506 532.102 421.699V407.479H535.863C536.549 407.479 537.094 406.934 537.094 406.248V402.715C538.922 402.187 540.24 400.5 540.24 398.514C540.24 396.105 538.271 394.137 535.863 394.137C533.455 394.137 531.486 396.105 531.486 398.514C531.486 400.5 532.822 402.187 534.633 402.715V405.018H530.871C530.186 405.018 529.641 405.563 529.641 406.248V422.104C529.641 422.191 529.641 422.262 529.658 422.35C528.551 422.578 527.408 422.736 526.23 422.789V406.564C528.041 406.037 529.377 404.35 529.377 402.363C529.377 399.955 527.408 397.986 525 397.986C522.592 397.986 520.623 399.955 520.623 402.363C520.623 404.35 521.959 406.037 523.77 406.564V422.789C522.609 422.736 521.467 422.578 520.342 422.35C520.359 422.279 520.359 422.191 520.359 422.104V406.248C520.359 405.563 519.814 405.018 519.129 405.018H515.367V402.715C517.178 402.187 518.514 400.5 518.514 398.514C518.514 396.105 516.545 394.137 514.137 394.137C511.711 394.137 509.76 396.105 509.76 398.514C509.76 400.5 511.096 402.187 512.906 402.715V406.248C512.906 406.934 513.451 407.479 514.137 407.479H517.898V421.699C517.318 421.506 516.738 421.295 516.176 421.049C507.949 417.604 502.184 409.482 502.184 400.008C502.184 387.404 512.396 377.191 525 377.191C537.604 377.191 547.816 387.404 547.816 400.008Z" fill="#668EF3"/>
<path d="M533.086 446.027C532.295 447.24 530.924 448.031 529.359 448.031H520.658C519.094 448.031 517.723 447.24 516.932 446.027H533.086Z" fill="#414CA9"/>
<path d="M537.551 437.396C537.059 437.889 536.391 438.187 535.652 438.187C537.146 438.187 538.342 439.4 538.342 440.877C538.342 441.615 538.043 442.283 537.551 442.775C537.059 443.268 536.391 443.566 535.652 443.566H514.348C512.854 443.566 511.658 442.354 511.658 440.877C511.658 440.139 511.957 439.471 512.449 438.979C512.941 438.486 513.609 438.187 514.348 438.187C512.854 438.187 511.658 436.975 511.658 435.498C511.658 434.76 511.957 434.074 512.449 433.6C512.941 433.107 513.609 432.809 514.348 432.809C512.854 432.809 511.658 431.613 511.658 430.119C511.658 429.381 511.957 428.713 512.449 428.221C512.941 427.729 513.609 427.43 514.348 427.43H516.176V424.178C521.854 426.252 528.129 426.27 533.807 424.213V427.43H535.635C537.129 427.43 538.324 428.625 538.324 430.119C538.324 430.857 538.025 431.543 537.533 432.018C537.041 432.51 536.373 432.809 535.635 432.809C537.129 432.809 538.324 434.021 538.324 435.498C538.342 436.236 538.043 436.922 537.551 437.396Z" fill="#414CA9"/>
<path d="M525.053 361.969C522.943 361.969 521.221 363.691 521.221 365.801C521.221 367.471 522.293 368.877 523.77 369.404V371.848C523.77 372.533 524.314 373.078 525 373.078C525.686 373.078 526.23 372.533 526.23 371.848V369.422C527.76 368.93 528.867 367.488 528.867 365.783C528.867 363.674 527.145 361.969 525.053 361.969Z" fill="#414CA9"/>
<path d="M544.917 381.322C545.233 381.322 545.549 381.199 545.778 380.953L547.483 379.248C548.028 379.529 548.625 379.67 549.206 379.67C550.19 379.67 551.157 379.301 551.913 378.545C552.633 377.824 553.038 376.857 553.038 375.838C553.038 374.818 552.633 373.852 551.913 373.131C551.192 372.41 550.225 372.006 549.206 372.006C548.186 372.006 547.219 372.41 546.499 373.131C545.778 373.852 545.374 374.818 545.374 375.838C545.374 376.418 545.514 376.98 545.743 377.49L544.002 379.23C543.528 379.705 543.528 380.496 544.002 380.971C544.284 381.199 544.6 381.322 544.917 381.322Z" fill="#414CA9"/>
<path d="M559.225 396.229C557.555 396.229 556.148 397.301 555.621 398.777H553.178C552.492 398.777 551.947 399.322 551.947 400.008C551.947 400.693 552.492 401.238 553.178 401.238H555.586C556.078 402.768 557.52 403.875 559.225 403.875C561.334 403.875 563.057 402.152 563.057 400.043C563.057 397.934 561.334 396.229 559.225 396.229Z" fill="#414CA9"/>
<path d="M549.17 420.416C548.59 420.416 548.028 420.557 547.518 420.785L545.778 419.045C545.303 418.57 544.512 418.57 544.038 419.045C543.563 419.52 543.563 420.311 544.038 420.785L545.743 422.49C545.479 423.018 545.321 423.615 545.321 424.213C545.321 425.232 545.725 426.199 546.446 426.92C547.184 427.658 548.168 428.045 549.153 428.045C550.137 428.045 551.104 427.676 551.86 426.92C552.581 426.199 552.985 425.232 552.985 424.213C552.985 423.193 552.581 422.227 551.86 421.506C551.157 420.82 550.19 420.416 549.17 420.416Z" fill="#414CA9"/>
<path d="M504.205 419.063L502.5 420.768C501.973 420.504 501.375 420.346 500.777 420.346C499.758 420.346 498.791 420.75 498.07 421.471C497.35 422.191 496.945 423.158 496.945 424.178C496.945 425.197 497.35 426.164 498.07 426.885C498.809 427.623 499.793 428.01 500.777 428.01C501.762 428.01 502.729 427.641 503.484 426.885C504.205 426.164 504.609 425.197 504.609 424.178C504.609 423.598 504.469 423.035 504.24 422.525L505.98 420.785C506.455 420.311 506.455 419.52 505.98 419.045C505.471 418.588 504.697 418.588 504.205 419.063Z" fill="#414CA9"/>
<path d="M498.053 400.008C498.053 399.322 497.508 398.777 496.822 398.777H494.414C493.922 397.248 492.48 396.141 490.775 396.141C488.666 396.141 486.943 397.863 486.943 399.973C486.943 402.082 488.666 403.805 490.775 403.805C492.445 403.805 493.852 402.732 494.379 401.256H496.822C497.508 401.238 498.053 400.693 498.053 400.008Z" fill="#414CA9"/>
<path d="M504.24 377.508C504.504 376.98 504.662 376.383 504.662 375.785C504.662 374.766 504.258 373.799 503.537 373.078C502.816 372.357 501.85 371.953 500.83 371.953C499.811 371.953 498.844 372.357 498.123 373.078C497.402 373.799 496.998 374.766 496.998 375.785C496.998 376.805 497.402 377.771 498.123 378.492C498.844 379.213 499.811 379.617 500.83 379.617C501.41 379.617 501.973 379.477 502.482 379.248L504.223 380.988C504.469 381.234 504.785 381.357 505.084 381.357C505.4 381.357 505.717 381.234 505.945 380.988C506.42 380.514 506.42 379.723 505.945 379.248L504.24 377.508Z" fill="#414CA9"/>
<path d="M433.301 307.939H376.699C371.689 307.939 367.629 312 367.629 317.01C367.629 319.523 368.648 321.773 370.283 323.426C371.918 325.061 374.186 326.08 376.699 326.08H433.301C438.311 326.08 442.371 322.02 442.371 317.01C442.371 314.496 441.352 312.229 439.717 310.594C438.082 308.941 435.814 307.939 433.301 307.939ZM377.068 321.809C374.414 321.809 372.252 319.646 372.252 316.992C372.252 314.338 374.414 312.176 377.068 312.176C379.723 312.176 381.885 314.338 381.885 316.992C381.885 319.664 379.74 321.809 377.068 321.809ZM387.668 317.238C387.65 317.309 387.633 317.396 387.598 317.467C387.562 317.537 387.527 317.607 387.492 317.678C387.439 317.748 387.387 317.818 387.334 317.871C387.281 317.924 387.211 317.977 387.141 318.029C387.07 318.082 387 318.117 386.93 318.135C386.859 318.17 386.771 318.187 386.701 318.205C386.613 318.223 386.543 318.223 386.455 318.223C386.367 318.223 386.297 318.205 386.209 318.205C386.121 318.187 386.051 318.17 385.98 318.135C385.91 318.1 385.84 318.064 385.77 318.029C385.699 317.977 385.646 317.924 385.576 317.871C385.348 317.643 385.207 317.326 385.207 317.01C385.207 316.922 385.207 316.852 385.225 316.764C385.242 316.676 385.26 316.605 385.295 316.535C385.33 316.465 385.365 316.395 385.4 316.324C385.453 316.254 385.488 316.201 385.559 316.131C385.611 316.078 385.682 316.025 385.752 315.973C385.822 315.92 385.893 315.885 385.963 315.867C386.033 315.832 386.121 315.814 386.191 315.797C386.35 315.762 386.508 315.762 386.666 315.797C386.736 315.814 386.824 315.832 386.895 315.867C386.965 315.902 387.035 315.938 387.105 315.973C387.176 316.025 387.229 316.061 387.299 316.131C387.352 316.184 387.404 316.254 387.457 316.324C387.51 316.395 387.545 316.465 387.563 316.535C387.598 316.605 387.615 316.693 387.633 316.764C387.65 316.834 387.65 316.922 387.65 317.01C387.686 317.08 387.686 317.168 387.668 317.238ZM391.764 318.24C391.078 318.24 390.533 317.695 390.533 317.01C390.533 316.324 391.078 315.779 391.764 315.779C392.449 315.779 392.994 316.324 392.994 317.01C392.994 317.678 392.432 318.24 391.764 318.24ZM396.844 318.24C396.158 318.24 395.613 317.695 395.613 317.01C395.613 316.324 396.158 315.779 396.844 315.779C397.529 315.779 398.074 316.324 398.074 317.01C398.074 317.678 397.529 318.24 396.844 318.24ZM401.924 318.24C401.238 318.24 400.693 317.695 400.693 317.01C400.693 316.324 401.238 315.779 401.924 315.779C402.609 315.779 403.154 316.324 403.154 317.01C403.154 317.678 402.609 318.24 401.924 318.24ZM407.004 318.24C406.318 318.24 405.773 317.695 405.773 317.01C405.773 316.324 406.318 315.779 407.004 315.779C407.689 315.779 408.234 316.324 408.234 317.01C408.234 317.678 407.689 318.24 407.004 318.24ZM412.084 318.24C411.398 318.24 410.854 317.695 410.854 317.01C410.854 316.324 411.398 315.779 412.084 315.779C412.77 315.779 413.314 316.324 413.314 317.01C413.314 317.678 412.77 318.24 412.084 318.24ZM417.164 318.24C416.479 318.24 415.934 317.695 415.934 317.01C415.934 316.324 416.479 315.779 417.164 315.779C417.85 315.779 418.395 316.324 418.395 317.01C418.395 317.678 417.85 318.24 417.164 318.24ZM424.74 317.238C424.723 317.309 424.705 317.396 424.67 317.467C424.635 317.537 424.6 317.607 424.564 317.678C424.512 317.748 424.477 317.801 424.406 317.871C424.178 318.1 423.861 318.24 423.545 318.24C423.457 318.24 423.387 318.223 423.299 318.223C423.229 318.205 423.141 318.188 423.07 318.152C423 318.117 422.93 318.082 422.859 318.047C422.789 317.994 422.736 317.941 422.666 317.889C422.438 317.66 422.314 317.344 422.314 317.027C422.314 316.711 422.455 316.377 422.666 316.148C422.719 316.096 422.789 316.043 422.859 315.99C422.93 315.937 423 315.902 423.07 315.885C423.141 315.85 423.229 315.832 423.299 315.814C423.457 315.779 423.615 315.779 423.773 315.814C423.861 315.832 423.932 315.85 424.002 315.885C424.072 315.92 424.143 315.955 424.213 315.99C424.283 316.025 424.336 316.078 424.406 316.148C424.459 316.201 424.512 316.271 424.564 316.342C424.617 316.412 424.652 316.482 424.67 316.553C424.705 316.623 424.723 316.711 424.74 316.781C424.758 316.852 424.758 316.939 424.758 317.027C424.775 317.08 424.758 317.168 424.74 317.238ZM432.932 321.809C430.277 321.809 428.115 319.646 428.115 316.992C428.115 314.338 430.277 312.176 432.932 312.176C435.586 312.176 437.748 314.338 437.748 316.992C437.73 319.664 435.586 321.809 432.932 321.809Z" fill="#668EF3"/>
<path d="M391.922 269.865C391.992 269.865 392.062 269.865 392.115 269.848C392.396 270.691 392.977 271.395 393.732 271.852C394.295 272.186 394.945 272.379 395.666 272.379C395.842 272.379 396.035 272.361 396.193 272.344V274.682H406.828V262.834H396.211V264.926C396.035 264.908 395.859 264.891 395.684 264.891C394.98 264.891 394.313 265.084 393.75 265.418C392.994 265.875 392.432 266.578 392.133 267.422C392.063 267.404 391.992 267.404 391.939 267.404H380.848C380.918 267.809 380.953 268.213 380.953 268.635C380.953 269.057 380.918 269.461 380.848 269.865H391.922V269.865Z" fill="#668EF3"/>
<path d="M372.99 264.539C371.232 265.066 369.949 266.701 369.949 268.635C369.949 270.99 371.865 272.906 374.221 272.906C376.154 272.906 377.807 271.623 378.316 269.848C378.422 269.461 378.492 269.057 378.492 268.635C378.492 268.213 378.422 267.809 378.316 267.422C377.912 266.051 376.822 264.961 375.451 264.539V250.652H430.277V262.008C430.682 261.937 431.086 261.902 431.508 261.902C431.93 261.902 432.334 261.937 432.738 262.008V250.652H442.389V243.92H367.629V250.635H372.99V264.539Z" fill="#414CA9"/>
<path d="M404.473 277.143H398.549V279.041H400.184V281.977C400.184 282.662 400.729 283.207 401.414 283.207C402.1 283.207 402.645 282.662 402.645 281.977V279.041H404.473V277.143Z" fill="#414CA9"/>
<path d="M405.633 257.631H397.301L398.426 260.373H404.525L405.633 257.631Z" fill="#414CA9"/>
<path d="M431.508 264.363C429.152 264.363 427.236 266.279 427.236 268.635C427.236 270.533 428.467 272.133 430.172 272.695V275.244V284.016C430.576 283.928 430.98 283.893 431.402 283.893C431.824 283.893 432.229 283.928 432.633 284.016V275.279V272.766C434.461 272.273 435.797 270.621 435.797 268.635C435.779 266.262 433.863 264.363 431.508 264.363Z" fill="#414CA9"/>
<path d="M437.186 290.625V301.26H425.338V290.625H427.676C427.658 290.449 427.641 290.273 427.641 290.098C427.641 288.023 429.311 286.354 431.385 286.354C433.459 286.354 435.129 288.023 435.129 290.098C435.129 290.273 435.111 290.467 435.094 290.625H437.186Z" fill="#668EF3"/>
<path d="M422.877 298.887V296.566V295.09V292.963H420.979V294.598H418.043C417.357 294.598 416.812 295.143 416.812 295.828C416.812 296.514 417.357 297.059 418.043 297.059H420.979V298.887H422.877Z" fill="#414CA9"/>
<path d="M439.646 292.84V298.922L442.371 300.047V291.715L439.646 292.84Z" fill="#414CA9"/>
<path d="M413.156 305.479V288.34C413.156 287.531 412.488 286.863 411.68 286.863H391.184C390.375 286.863 389.707 287.531 389.707 288.34V305.479H394.84V298.535C394.84 297.85 395.385 297.305 396.07 297.305C396.756 297.305 397.301 297.85 397.301 298.535V305.461H400.201V298.535C400.201 297.85 400.746 297.305 401.432 297.305C402.117 297.305 402.662 297.85 402.662 298.535V305.461H405.563V298.535C405.563 297.85 406.107 297.305 406.793 297.305C407.479 297.305 408.023 297.85 408.023 298.535V305.461H413.156V305.479Z" fill="#414CA9"/>
<path d="M28.408 281.748C29.0409 281.537 29.7264 281.432 30.4119 281.432C31.5194 281.432 32.6092 281.713 33.5584 282.223L35.9315 279.849L40.3963 275.385L44.1229 279.111L50.1522 273.082L49.3787 272.238C52.8065 265.787 52.2791 257.631 47.41 251.584C42.4881 245.467 34.5428 243.234 27.4588 245.308L38.867 259.476L27.5819 268.564L16.2088 254.396C12.6756 260.883 13.1678 269.127 18.0897 275.226C20.8143 278.619 24.4705 280.816 28.408 281.748Z" fill="#414CA9"/>
<path d="M58.3789 282.082L52.7363 287.725L56.4629 291.451L49.9414 297.973L49.6426 298.271L64.1094 318.75C67.5371 323.602 74.3398 324.551 78.9629 320.824C83.5859 317.098 84.1133 310.26 80.1055 305.865L58.3789 282.082Z" fill="#414CA9"/>
<path d="M46.3208 298.096L33.7524 285.527L33.3306 285.105C31.731 283.506 29.1294 283.506 27.5298 285.105L7.63135 305.004C6.03174 306.604 6.03174 309.205 7.63135 310.805L21.061 324.234C22.6606 325.834 25.2622 325.834 26.8618 324.234L46.7603 304.336C48.3599 302.736 48.3599 300.135 46.7603 298.535L46.3208 298.096Z" fill="#414CA9"/>
<path d="M82.918 259.494L74.4453 267.967C73.5664 268.846 72.125 268.846 71.2461 267.967L70.1387 266.859L56.709 280.254L49.2383 287.707L52.9648 291.434L48.1836 296.215L48.043 296.355L47.3223 295.635L36.2129 284.508L35.4922 283.787L37.6719 281.607L40.3965 278.883L44.123 282.609L51.8223 274.91L65.0059 261.727L63.8984 260.619C63.0195 259.723 63.0195 258.299 63.8984 257.42L72.3711 248.947C73.25 248.068 74.6914 248.068 75.5703 248.947L82.918 256.295C83.7969 257.174 83.7969 258.598 82.918 259.494Z" fill="#668EF3"/>
<path d="M386 401.572V384.662C382.344 385.717 379.654 389.109 379.654 393.117C379.672 397.125 382.344 400.518 386 401.572Z" fill="#414CA9"/>
<path d="M430.525 393.117C430.525 389.109 427.854 385.734 424.18 384.662V401.572C427.854 400.518 430.525 397.125 430.525 393.117Z" fill="#414CA9"/>
<path d="M390.975 407.338H398.779V411.891H411.225V407.338H419.223C420.611 407.338 421.719 406.213 421.719 404.842V381.41C421.719 380.021 420.594 378.914 419.223 378.914H406.32V372.516C406.32 372.463 406.32 372.41 406.303 372.357C408.271 371.83 409.713 370.02 409.713 367.893C409.713 365.326 407.639 363.252 405.072 363.252C402.506 363.252 400.432 365.326 400.432 367.893C400.432 370.037 401.873 371.83 403.842 372.357C403.842 372.41 403.824 372.463 403.824 372.516V378.914H390.922C389.533 378.914 388.426 380.039 388.426 381.41V404.842C388.461 406.213 389.586 407.338 390.975 407.338ZM400.695 402.451H396.494V395.385H400.695V402.451ZM413.545 402.451H409.344V395.385H413.545V402.451ZM407.85 386.912C407.99 385.471 409.15 384.311 410.592 384.17C412.525 383.977 414.143 385.594 413.949 387.527C413.809 388.969 412.648 390.129 411.207 390.27C409.273 390.463 407.656 388.846 407.85 386.912ZM403.156 395.385H406.865V402.451H403.156V395.385V395.385ZM396.248 386.912C396.389 385.471 397.549 384.311 398.99 384.17C400.924 383.977 402.541 385.594 402.348 387.527C402.207 388.969 401.047 390.129 399.605 390.27C397.672 390.463 396.055 388.846 396.248 386.912Z" fill="#668EF3"/>
<path d="M421.719 414.369H388.461V440.016H421.719V414.369Z" fill="#414CA9"/>
<path d="M386 414.369H379.285V446.748H388.461V442.477H386V414.369Z" fill="#668EF3"/>
<path d="M424.18 414.369V442.477H421.543V446.748H430.719V414.369H424.18Z" fill="#668EF3"/>
<path d="M293.772 285.563C297.34 285.563 300.223 282.697 300.258 279.146H293.772V272.572C290.186 272.572 287.285 275.473 287.285 279.059C287.268 282.645 290.186 285.563 293.772 285.563Z" fill="#414CA9"/>
<path d="M282.732 272.572H269.742V285.563H282.732V272.572Z" fill="#414CA9"/>
<path d="M257.367 311.965H312.65V258.035H257.367V311.965ZM281.555 305.918C281.555 306.762 280.869 307.447 280.025 307.447H278.162C277.318 307.447 276.633 306.762 276.633 305.918V299.643C276.633 298.799 277.318 298.113 278.162 298.113H280.025C280.869 298.113 281.555 298.799 281.555 299.643V305.918ZM293.35 305.918C293.35 306.762 292.664 307.447 291.82 307.447H289.957C289.113 307.447 288.428 306.762 288.428 305.918V299.643C288.428 298.799 289.113 298.113 289.957 298.113H291.82C292.664 298.113 293.35 298.799 293.35 299.643V305.918ZM305.127 305.918C305.127 306.762 304.441 307.447 303.598 307.447H301.734C300.891 307.447 300.205 306.762 300.205 305.918V301.312C300.205 300.469 300.891 299.783 301.734 299.783H303.598C304.441 299.783 305.127 300.469 305.127 301.312V305.918ZM264.873 267.035C264.873 266.191 265.559 265.523 266.385 265.523H303.598C304.441 265.523 305.109 266.209 305.109 267.035V291.082C305.109 291.926 304.424 292.594 303.598 292.594H266.385C265.541 292.594 264.873 291.908 264.873 291.082V267.035ZM264.873 301.312C264.873 300.469 265.559 299.783 266.402 299.783H268.266C269.109 299.783 269.795 300.469 269.795 301.312V305.918C269.795 306.762 269.109 307.447 268.266 307.447H266.402C265.559 307.447 264.873 306.762 264.873 305.918V301.312Z" fill="#668EF3"/>
<path d="M257.367 319.137C257.367 321.844 259.547 324.023 262.254 324.023H307.764C310.471 324.023 312.65 321.844 312.65 319.137V314.426H257.367V319.137ZM285 316.957C286.248 316.957 287.25 317.959 287.25 319.207C287.25 320.455 286.248 321.457 285 321.457C283.752 321.457 282.75 320.455 282.75 319.207C282.75 317.959 283.752 316.957 285 316.957Z" fill="#414CA9"/>
<path d="M307.746 245.977H262.254C259.547 245.977 257.367 248.156 257.367 250.863V255.574H312.65V250.863C312.633 248.156 310.453 245.977 307.746 245.977ZM290.098 252.006H279.902C279.217 252.006 278.672 251.461 278.672 250.775C278.672 250.09 279.217 249.545 279.902 249.545H290.098C290.783 249.545 291.328 250.09 291.328 250.775C291.328 251.461 290.766 252.006 290.098 252.006Z" fill="#414CA9"/>
<path d="M199.768 406.055H130.229C127.557 406.055 125.395 408.217 125.395 410.889V440.438C125.395 443.109 127.557 445.271 130.229 445.271H199.768C202.439 445.271 204.602 443.109 204.602 440.438V410.871C204.602 408.217 202.439 406.055 199.768 406.055ZM140.301 437.133H131.969V428.801H140.301V437.133ZM140.301 422.543H131.969V414.211H140.301V422.543ZM154.732 437.133H146.4V428.801H154.732V437.133ZM154.732 422.543H146.4V414.211H154.732V422.543ZM169.164 437.133H160.832V428.801H169.164V437.133ZM169.164 422.543H160.832V414.211H169.164V422.543ZM183.596 437.133H175.264V428.801H183.596V437.133ZM183.596 422.543H175.264V414.211H183.596V422.543ZM198.027 437.133H189.695V428.801H198.027V437.133ZM198.027 422.543H189.695V414.211H198.027V422.543Z" fill="#414CA9"/>
<path d="M204.777 365.186C204.144 364.939 203.424 365.256 203.195 365.889C202.492 367.734 200.769 369.316 198.098 370.617C193.176 372.99 187.146 373.816 179.658 373.113C176.072 372.779 172.433 372.129 168.9 371.514C166.123 371.022 163.258 370.529 160.41 370.16C152.307 369.141 145.996 369.598 140.564 371.619C139.387 372.059 137.875 372.709 136.662 373.834C135.326 375.1 134.605 376.805 134.728 378.404C134.887 380.303 136.17 382.061 138.191 383.098C139.615 383.836 141.144 384.135 142.603 384.434C142.797 384.469 142.973 384.504 143.166 384.539C148.299 385.576 152.447 387.229 155.84 389.566C159.232 391.904 161.781 394.945 163.187 398.303H151.709V403.594H178.287V398.303H165.824C164.348 394.154 161.324 390.357 157.228 387.545C153.555 385.014 149.125 383.256 143.658 382.148C143.465 382.113 143.271 382.078 143.096 382.043C141.724 381.779 140.441 381.516 139.334 380.936C138.367 380.426 137.277 379.459 137.189 378.229C137.119 377.367 137.558 376.4 138.367 375.645C139.246 374.818 140.476 374.291 141.443 373.939C146.488 372.076 152.43 371.654 160.129 372.621C162.924 372.973 165.754 373.465 168.496 373.957C172.064 374.59 175.756 375.24 179.447 375.574C187.41 376.313 193.861 375.434 199.187 372.85C202.457 371.268 204.584 369.229 205.516 366.785C205.726 366.135 205.41 365.414 204.777 365.186Z" fill="#668EF3"/>
<path d="M483.182 273.381V288.762H499.881V264.645H491.918C487.084 264.645 483.182 268.564 483.182 273.381ZM494.66 277.512C494.66 279.252 493.254 280.658 491.514 280.658C489.773 280.658 488.367 279.252 488.367 277.512C488.367 275.771 489.773 274.365 491.514 274.365C493.254 274.365 494.66 275.771 494.66 277.512Z" fill="#414CA9"/>
<path d="M483.182 310.805C483.182 313.318 485.221 315.357 487.734 315.357H499.881V291.24H483.182V310.805V310.805Z" fill="#668EF3"/>
<path d="M557.098 309.328C557.098 312.668 556.816 315.375 553.477 315.375H561.369C564.375 315.375 566.818 312.932 566.818 309.926V287.303H557.08V309.328H557.098Z" fill="#668EF3"/>
<path d="M525.844 300.943C532.018 300.943 537.023 295.938 537.023 289.764C537.023 283.589 532.018 278.584 525.844 278.584C519.669 278.584 514.664 283.589 514.664 289.764C514.664 295.938 519.669 300.943 525.844 300.943Z" fill="#668EF3"/>
<path d="M541.277 256.189C540.275 255.187 538.939 254.643 537.533 254.643H514.172C512.766 254.643 511.412 255.205 510.428 256.189L504.434 262.184H547.271L541.277 256.189Z" fill="#668EF3"/>
<path d="M563.197 264.645H502.342V288.779H505.664C506.174 278.074 515.033 269.549 525.861 269.549C537.023 269.549 546.076 278.602 546.076 289.764C546.076 300.926 537.023 309.979 525.861 309.979C515.191 309.979 506.455 301.699 505.699 291.223H502.359V315.357H551.068V312.896C553.037 312.896 554.654 311.297 554.654 309.311V284.842H566.854V268.248C566.818 266.262 565.201 264.645 563.197 264.645ZM562.055 276.58H555.023V269.549H562.055V276.58Z" fill="#414CA9"/>
<path d="M186.34 283.031V252.674C186.34 251.812 185.654 251.127 184.793 251.127H174.773V257.543H178.359C179.221 257.543 179.906 258.229 179.906 259.09V276.615C179.906 277.477 179.221 278.162 178.359 278.162H174.773V284.578H184.793C185.637 284.578 186.34 283.893 186.34 283.031Z" fill="#414CA9"/>
<path d="M133.728 287.918H172.312V287.057V275.719V260.021V248.666V247.014C172.312 246.117 171.591 245.396 170.695 245.396H129.439C128.138 245.396 127.365 246.838 128.103 247.91L133.746 256.348V287.918H133.728ZM141.761 258.563H151.728C152.414 258.563 152.959 259.107 152.959 259.793C152.959 260.479 152.414 261.023 151.728 261.023H141.761C141.076 261.023 140.531 260.479 140.531 259.793C140.531 259.107 141.076 258.563 141.761 258.563ZM141.761 266.156H151.728C152.414 266.156 152.959 266.701 152.959 267.387C152.959 268.072 152.414 268.617 151.728 268.617H141.761C141.076 268.617 140.531 268.072 140.531 267.387C140.531 266.701 141.076 266.156 141.761 266.156ZM141.761 273.75H151.728C152.414 273.75 152.959 274.295 152.959 274.98C152.959 275.666 152.414 276.211 151.728 276.211H141.761C141.076 276.211 140.531 275.666 140.531 274.98C140.531 274.295 141.076 273.75 141.761 273.75ZM141.761 281.344H151.728C152.414 281.344 152.959 281.889 152.959 282.574C152.959 283.26 152.414 283.805 151.728 283.805H141.761C141.076 283.805 140.531 283.26 140.531 282.574C140.531 281.889 141.076 281.344 141.761 281.344Z" fill="#668EF3"/>
<path d="M183.65 245.396H176.408V248.666H183.65V245.396Z" fill="#414CA9"/>
<path d="M194.777 295.037H176.584V291.908C176.584 291.064 175.898 290.379 175.055 290.379H131.004C130.16 290.379 129.475 291.064 129.475 291.908V300.645C129.475 301.488 130.16 302.174 131.004 302.174H175.037C175.881 302.174 176.566 301.488 176.566 300.645V297.516H194.76C197.484 297.516 199.717 299.73 199.717 302.473V311.736C199.717 314.461 197.502 316.693 194.76 316.693H153.029C152.941 316.693 152.836 316.711 152.748 316.729V313.723C152.748 313.248 152.432 312.844 151.975 312.738L145.98 311.262C145.91 311.244 145.822 311.227 145.734 311.227H139.072C138.51 311.227 138.053 311.684 138.053 312.246V313.037H133.271C132.586 313.037 132.041 313.582 132.041 314.268C132.041 314.953 132.586 315.498 133.271 315.498H138.053V320.332H133.271C132.586 320.332 132.041 320.877 132.041 321.562C132.041 322.248 132.586 322.793 133.271 322.793H138.053V323.584C138.053 324.146 138.51 324.604 139.072 324.604H145.734C145.822 324.604 145.893 324.586 145.98 324.568L151.975 323.092C152.432 322.986 152.748 322.564 152.748 322.107V319.102C152.836 319.119 152.924 319.137 153.029 319.137H194.777C198.873 319.137 202.195 315.814 202.195 311.719V302.455C202.178 298.377 198.855 295.037 194.777 295.037Z" fill="#414CA9"/>
</svg>
