<svg width="72" height="69" viewBox="0 0 72 69" fill="none" xmlns="http://www.w3.org/2000/svg">
<path d="M36.5332 2.04655C38.6591 0.784898 41.3044 0.784899 43.4304 2.04655L63.7661 14.1146C65.8174 15.3319 67.0749 17.5405 67.0749 19.9258V44.387C67.0749 46.7723 65.8174 48.9809 63.7661 50.1982L43.4304 62.2662C41.3044 63.5279 38.6591 63.5279 36.5332 62.2662L16.1974 50.1982C14.1461 48.9809 12.8886 46.7723 12.8886 44.387V19.9258C12.8886 17.5405 14.1461 15.3319 16.1974 14.1146L36.5332 2.04655Z" fill="#668EF3"/>
<path d="M18.0594 35.296L30.1135 42.462C30.3411 42.5973 30.4806 42.8426 30.4806 43.1074V57.6061C30.4806 57.871 30.3411 58.1162 30.1135 58.2515L18.0594 65.4176C17.823 65.5581 17.5285 65.5581 17.2921 65.4176L5.23801 58.2515C5.01037 58.1162 4.87086 57.871 4.87086 57.6061V43.1074C4.87086 42.8426 5.01037 42.5973 5.23801 42.462L17.2921 35.296C17.5285 35.1554 17.8229 35.1554 18.0594 35.296Z" stroke="#414CA9" stroke-width="5.00552"/>
</svg>
