<svg width="115" height="111" viewBox="0 0 115 111" fill="none" xmlns="http://www.w3.org/2000/svg">
<path d="M58.6191 3.28378C62.0303 1.25941 66.2747 1.25941 69.686 3.28378L102.316 22.6475C105.607 24.6008 107.625 28.1446 107.625 31.9719V71.221C107.625 75.0483 105.607 78.5921 102.316 80.5453L69.686 99.9091C66.2747 101.933 62.0303 101.933 58.6191 99.9091L25.9895 80.5453C22.6981 78.5921 20.6803 75.0483 20.6803 71.221V31.9719C20.6803 28.1446 22.6981 24.6008 25.9894 22.6475L58.6191 3.28378Z" fill="#668EF3"/>
<path d="M27.7459 56.634C28.1254 56.4085 28.5978 56.4085 28.9772 56.634L48.3185 68.1322C48.6837 68.3494 48.9076 68.7429 48.9076 69.1678V92.4317C48.9076 92.8567 48.6837 93.2502 48.3185 93.4673L28.9772 104.966C28.5978 105.191 28.1254 105.191 27.7459 104.966L8.40463 93.4673C8.03937 93.2502 7.81552 92.8567 7.81552 92.4317V69.1678C7.81552 68.7429 8.03937 68.3494 8.40463 68.1322L27.7459 56.634Z" stroke="white" stroke-width="8.03159"/>
</svg>
