<svg width="220" height="69" viewBox="0 0 220 69" fill="none" xmlns="http://www.w3.org/2000/svg">
<path d="M36.5332 2.04655C38.6591 0.784898 41.3044 0.784899 43.4304 2.04655L63.7661 14.1146C65.8174 15.3319 67.0749 17.5405 67.0749 19.9258V44.387C67.0749 46.7723 65.8174 48.9809 63.7661 50.1982L43.4304 62.2662C41.3044 63.5279 38.6591 63.5279 36.5332 62.2662L16.1974 50.1982C14.1461 48.9809 12.8886 46.7723 12.8886 44.387V19.9258C12.8886 17.5405 14.1461 15.3319 16.1974 14.1146L36.5332 2.04655Z" fill="#668EF3"/>
<path d="M17.2921 35.296C17.5285 35.1554 17.8229 35.1554 18.0594 35.296L30.1135 42.462C30.3411 42.5973 30.4806 42.8426 30.4806 43.1074V57.6061C30.4806 57.871 30.3411 58.1162 30.1135 58.2515L18.0594 65.4176C17.823 65.5581 17.5285 65.5581 17.2921 65.4176L5.23801 58.2515C5.01037 58.1162 4.87086 57.871 4.87086 57.6061V43.1074C4.87086 42.8426 5.01037 42.5973 5.23801 42.462L17.2921 35.296Z" stroke="#414CA9" stroke-width="5.00552"/>
<path d="M111.937 53.1691C111.498 53.1781 111.023 53.1871 110.512 53.196C110.494 53.8415 110.481 54.5004 110.472 55.1728C110.472 55.8362 110.463 56.5041 110.445 57.1764C110.436 57.8488 110.422 58.5167 110.404 59.1801C110.386 59.8345 110.36 60.4755 110.324 61.103C110.306 61.372 110.234 61.5513 110.109 61.6409C109.983 61.7306 109.822 61.7664 109.624 61.7485C109.418 61.7306 109.275 61.6723 109.194 61.5737C109.113 61.4751 109.069 61.2734 109.06 60.9686C109.051 60.4127 109.042 59.8076 109.033 59.1532C109.033 58.4898 109.033 57.8174 109.033 57.1361C109.033 56.4547 109.033 55.7779 109.033 55.1055C109.042 54.4332 109.051 53.8056 109.06 53.2229C108.576 53.2319 108.118 53.2364 107.688 53.2364C107.267 53.2364 106.913 53.2364 106.626 53.2364C106.294 53.2364 106.128 53.0391 106.128 52.6447C106.128 52.2502 106.272 52.0485 106.558 52.0395C106.765 52.0306 107.043 52.0216 107.392 52.0127C107.742 52.0037 108.123 51.9947 108.535 51.9858C108.948 51.9768 109.378 51.9723 109.826 51.9723C110.274 51.9633 110.7 51.9589 111.104 51.9589C111.516 51.9499 111.893 51.9454 112.233 51.9454C112.574 51.9365 112.843 51.932 113.04 51.932C113.175 51.932 113.278 51.9633 113.349 52.0261C113.421 52.0889 113.461 52.2233 113.47 52.4295C113.479 52.6716 113.439 52.8464 113.349 52.954C113.269 53.0615 113.148 53.1198 112.986 53.1288C112.726 53.1467 112.377 53.1602 111.937 53.1691ZM116.241 53.0884C116.044 53.2946 115.802 53.3977 115.515 53.3977C115.228 53.3977 114.986 53.2946 114.789 53.0884C114.592 52.8822 114.493 52.6223 114.493 52.3085C114.493 52.0127 114.592 51.7616 114.789 51.5554C114.986 51.3493 115.228 51.2462 115.515 51.2462C115.802 51.2462 116.044 51.3493 116.241 51.5554C116.438 51.7616 116.537 52.0127 116.537 52.3085C116.537 52.6223 116.438 52.8822 116.241 53.0884ZM115.179 61.6006C115.062 61.5109 114.995 61.3496 114.977 61.1165C114.932 60.0945 114.901 59.1039 114.883 58.1446C114.865 57.1764 114.847 56.1903 114.829 55.1862C114.82 54.9531 114.87 54.7962 114.977 54.7156C115.085 54.6259 115.255 54.5811 115.488 54.5811C115.748 54.5811 115.927 54.6169 116.026 54.6887C116.125 54.7604 116.174 54.9128 116.174 55.1459C116.192 56.123 116.192 57.1092 116.174 58.1043C116.156 59.0904 116.143 60.0497 116.134 60.982C116.134 61.2599 116.093 61.4437 116.013 61.5333C115.932 61.632 115.802 61.6902 115.623 61.7082C115.443 61.7261 115.295 61.6902 115.179 61.6006ZM119.207 63.4966C119.207 63.667 119.203 63.8059 119.194 63.9135C119.185 64.0301 119.158 64.1197 119.113 64.1825C119.077 64.2542 119.019 64.3035 118.938 64.3304C118.866 64.3662 118.763 64.3842 118.629 64.3842C118.36 64.3931 118.185 64.3349 118.104 64.2094C118.033 64.0838 117.988 63.8821 117.97 63.6042C117.934 63.1381 117.898 62.5598 117.862 61.8695C117.836 61.1792 117.809 60.4531 117.782 59.6911C117.764 58.9201 117.746 58.1446 117.728 57.3647C117.71 56.5758 117.697 55.8541 117.688 55.1997C117.688 54.9666 117.737 54.7962 117.836 54.6887C117.934 54.5811 118.127 54.5273 118.414 54.5273C118.692 54.5273 118.871 54.5856 118.952 54.7021C119.041 54.8097 119.086 54.9755 119.086 55.1997V55.5762C119.256 55.2983 119.525 55.0652 119.893 54.8769C120.269 54.6797 120.736 54.5632 121.291 54.5273C121.731 54.5004 122.148 54.5632 122.542 54.7156C122.946 54.868 123.295 55.0921 123.591 55.3879C123.887 55.6838 124.12 56.0468 124.29 56.4772C124.47 56.9075 124.564 57.3871 124.573 57.916C124.582 58.5525 124.487 59.1173 124.29 59.6104C124.102 60.1034 123.846 60.5158 123.524 60.8475C123.201 61.1703 122.829 61.4078 122.408 61.5602C121.986 61.7216 121.543 61.7888 121.076 61.7619C120.897 61.753 120.718 61.7261 120.538 61.6813C120.359 61.6364 120.184 61.5737 120.014 61.493C119.844 61.4213 119.687 61.3316 119.543 61.2241C119.409 61.1254 119.297 61.0089 119.207 60.8744V63.4966ZM121.883 60.3634C122.152 60.2558 122.381 60.0945 122.569 59.8793C122.766 59.6642 122.919 59.4042 123.026 59.0994C123.143 58.7856 123.197 58.4315 123.188 58.037C123.17 57.2661 122.959 56.6833 122.556 56.2889C122.161 55.8944 121.655 55.7196 121.036 55.7644C120.453 55.8093 119.978 56.0513 119.611 56.4906C119.243 56.9299 119.068 57.5126 119.086 58.2388C119.095 58.6511 119.153 59.0008 119.261 59.2876C119.377 59.5745 119.525 59.8121 119.705 60.0003C119.884 60.1796 120.09 60.3141 120.323 60.4038C120.565 60.4845 120.816 60.5248 121.076 60.5248C121.354 60.5248 121.623 60.471 121.883 60.3634ZM131.416 60.1752C131.353 60.7131 131.071 61.112 130.569 61.372C130.067 61.632 129.43 61.7619 128.659 61.7619C128.355 61.7619 128.054 61.7395 127.758 61.6947C127.472 61.6499 127.203 61.5826 126.952 61.493C126.701 61.4123 126.477 61.3092 126.279 61.1837C126.082 61.0672 125.925 60.9372 125.809 60.7937C125.522 60.462 125.522 60.1572 125.809 59.8793C125.889 59.7986 126.006 59.7359 126.158 59.6911C126.32 59.6373 126.454 59.6507 126.562 59.7314C126.849 59.9645 127.171 60.1617 127.53 60.3231C127.888 60.4755 128.256 60.5607 128.633 60.5786C129.036 60.5965 129.345 60.5651 129.56 60.4845C129.776 60.3948 129.901 60.2783 129.937 60.1348C129.973 59.9824 129.932 59.8345 129.816 59.6911C129.708 59.5476 129.507 59.4132 129.211 59.2876C128.861 59.1442 128.467 59.0008 128.027 58.8573C127.597 58.7049 127.194 58.557 126.817 58.4136C126.27 58.2074 125.88 57.9071 125.647 57.5126C125.423 57.1092 125.347 56.6744 125.419 56.2082C125.49 55.7331 125.755 55.3431 126.212 55.0383C126.669 54.7335 127.346 54.5721 128.243 54.5542C128.807 54.5363 129.336 54.6035 129.829 54.7559C130.331 54.9083 130.735 55.101 131.04 55.3341C131.237 55.4865 131.358 55.6479 131.403 55.8182C131.456 55.9886 131.394 56.1634 131.214 56.3427C131.062 56.4951 130.896 56.5892 130.717 56.6251C130.547 56.652 130.394 56.6027 130.26 56.4772C130 56.253 129.708 56.0782 129.386 55.9527C129.063 55.8272 128.673 55.7555 128.216 55.7376C127.75 55.7196 127.418 55.7734 127.221 55.8989C127.032 56.0244 126.92 56.1724 126.884 56.3427C126.84 56.5399 126.862 56.7282 126.952 56.9075C127.041 57.0778 127.207 57.2123 127.449 57.3109C127.611 57.3826 127.79 57.4588 127.987 57.5395C128.193 57.6112 128.395 57.6829 128.592 57.7546C128.798 57.8264 129 57.8981 129.197 57.9698C129.404 58.0415 129.587 58.1088 129.749 58.1715C130.349 58.4136 130.789 58.687 131.067 58.9918C131.353 59.2876 131.47 59.6821 131.416 60.1752ZM137.738 54.7559C137.729 55.3297 137.715 55.8944 137.697 56.4503C138.477 56.4323 139.203 56.4234 139.876 56.4234C140.557 56.4234 141.144 56.4278 141.637 56.4368C141.79 56.4368 141.915 56.4682 142.014 56.5309C142.121 56.5847 142.175 56.7237 142.175 56.9478C142.175 57.2078 142.121 57.3736 142.014 57.4454C141.906 57.5171 141.772 57.5574 141.61 57.5664C141.404 57.5843 141.144 57.5978 140.83 57.6067C140.517 57.6157 140.18 57.6247 139.822 57.6336C139.463 57.6336 139.096 57.6381 138.719 57.6471C138.352 57.656 138.006 57.6605 137.684 57.6605C137.675 58.315 137.661 58.9246 137.643 59.4894C137.634 60.0452 137.621 60.5024 137.603 60.861C137.585 61.1299 137.522 61.3451 137.415 61.5064C137.307 61.6678 137.132 61.7485 136.89 61.7485C136.675 61.7485 136.518 61.6857 136.42 61.5602C136.33 61.4437 136.285 61.2196 136.285 60.8879C136.285 59.4625 136.29 58.046 136.299 56.6385C136.308 55.2221 136.321 53.8011 136.339 52.3757C136.339 52.2592 136.37 52.1606 136.433 52.0799C136.496 51.9992 136.572 51.9589 136.662 51.9589C137.531 51.9409 138.432 51.923 139.365 51.9051C140.306 51.8871 141.238 51.8782 142.162 51.8782C142.377 51.8782 142.516 51.9185 142.579 51.9992C142.65 52.0709 142.686 52.2099 142.686 52.4161C142.686 52.6671 142.641 52.8329 142.552 52.9136C142.471 52.9943 142.345 53.0391 142.175 53.0481C141.852 53.0571 141.498 53.0705 141.113 53.0884C140.736 53.0974 140.355 53.1064 139.97 53.1153C139.584 53.1243 139.199 53.1333 138.813 53.1422C138.437 53.1512 138.087 53.1602 137.764 53.1691C137.755 53.6532 137.746 54.1822 137.738 54.7559ZM150.314 59.5431C150.135 59.9824 149.883 60.3634 149.561 60.6862C149.238 60.9999 148.848 61.2465 148.391 61.4258C147.943 61.614 147.445 61.7126 146.898 61.7216C146.342 61.7306 145.84 61.6499 145.392 61.4796C144.953 61.3092 144.572 61.0717 144.249 60.7668C143.935 60.462 143.693 60.1079 143.523 59.7045C143.353 59.2921 143.263 58.8484 143.254 58.3732C143.245 57.8533 143.317 57.3692 143.469 56.9209C143.622 56.4637 143.846 56.0648 144.141 55.7241C144.446 55.3834 144.818 55.11 145.258 54.9038C145.697 54.6976 146.199 54.5811 146.764 54.5542C147.337 54.5273 147.862 54.599 148.337 54.7693C148.812 54.9307 149.216 55.1683 149.547 55.4821C149.888 55.7958 150.148 56.1724 150.327 56.6116C150.507 57.0509 150.596 57.5395 150.596 58.0774C150.596 58.6063 150.502 59.0949 150.314 59.5431ZM147.88 60.3231C148.158 60.1886 148.395 60.0138 148.593 59.7986C148.79 59.5745 148.942 59.3101 149.05 59.0052C149.157 58.6915 149.207 58.3463 149.198 57.9698C149.18 57.2616 148.96 56.7058 148.539 56.3023C148.126 55.8989 147.53 55.7151 146.75 55.751C146.41 55.7689 146.109 55.8451 145.849 55.9796C145.589 56.1141 145.37 56.2934 145.19 56.5175C145.02 56.7327 144.886 56.9837 144.787 57.2705C144.697 57.5485 144.652 57.8488 144.652 58.1715C144.652 58.8977 144.85 59.4759 145.244 59.9062C145.639 60.3365 146.217 60.5427 146.979 60.5248C147.302 60.5158 147.602 60.4486 147.88 60.3231ZM153.203 60.9551C153.185 61.2689 153.123 61.4796 153.015 61.5871C152.917 61.6947 152.773 61.7485 152.585 61.7485C152.361 61.7485 152.208 61.7082 152.128 61.6275C152.056 61.5468 152.011 61.3585 151.993 61.0627C151.939 60.1662 151.895 59.2383 151.859 58.2791C151.823 57.3109 151.805 56.2979 151.805 55.24C151.805 55.0069 151.841 54.8366 151.912 54.729C151.993 54.6125 152.177 54.5452 152.464 54.5273C152.742 54.5094 152.939 54.5452 153.055 54.6349C153.172 54.7245 153.235 54.8635 153.244 55.0517C153.244 55.1324 153.244 55.2355 153.244 55.361C153.253 55.4776 153.257 55.6076 153.257 55.751C153.257 55.8855 153.257 56.0244 153.257 56.1679C153.257 56.3113 153.257 56.4413 153.257 56.5578C153.41 56.253 153.602 55.9706 153.835 55.7107C154.077 55.4507 154.342 55.231 154.629 55.0517C154.916 54.8724 155.225 54.738 155.557 54.6483C155.888 54.5587 156.225 54.5228 156.565 54.5407C157.058 54.5676 157.287 54.8052 157.251 55.2535C157.224 55.5941 157.13 55.8182 156.969 55.9258C156.807 56.0244 156.601 56.0648 156.35 56.0468C155.929 56.0199 155.534 56.0961 155.167 56.2754C154.799 56.4458 154.472 56.6654 154.185 56.9344C153.907 57.1943 153.683 57.4812 153.513 57.795C153.351 58.0998 153.266 58.3777 153.257 58.6287L153.203 60.9551ZM167.042 56.4772C166.746 56.8985 166.477 57.293 166.235 57.6605C166.235 57.9922 166.23 58.297 166.221 58.5749C166.212 58.8528 166.203 59.1263 166.194 59.3952C166.194 59.6552 166.19 59.9152 166.181 60.1752C166.181 60.4262 166.181 60.6906 166.181 60.9686C166.172 61.2734 166.118 61.4796 166.02 61.5871C165.921 61.6947 165.769 61.7485 165.562 61.7485C165.356 61.7485 165.199 61.6947 165.092 61.5871C164.984 61.4796 164.93 61.2734 164.93 60.9686C164.93 60.4217 164.926 59.8838 164.917 59.3549C164.908 58.817 164.899 58.2522 164.89 57.6605C164.648 57.3019 164.379 56.912 164.083 56.4906C163.796 56.0693 163.509 55.6434 163.223 55.2131C162.936 54.7738 162.653 54.348 162.375 53.9356C162.106 53.5143 161.864 53.1198 161.649 52.7523C161.416 52.3578 161.519 52.0754 161.959 51.9051C162.192 51.8244 162.384 51.802 162.537 51.8378C162.698 51.8737 162.864 52.0216 163.034 52.2816C163.214 52.5685 163.406 52.8822 163.613 53.2229C163.828 53.5546 164.043 53.8953 164.258 54.2449C164.482 54.5945 164.702 54.9442 164.917 55.2938C165.141 55.6345 165.356 55.9527 165.562 56.2486C165.778 55.9437 166.002 55.6165 166.235 55.2669C166.468 54.9173 166.692 54.5721 166.907 54.2315C167.131 53.8818 167.346 53.5456 167.553 53.2229C167.759 52.8912 167.943 52.5909 168.104 52.3219C168.265 52.053 168.422 51.8961 168.575 51.8513C168.727 51.7975 168.915 51.8154 169.139 51.9051C169.346 51.9947 169.485 52.1113 169.556 52.2547C169.637 52.3892 169.615 52.5685 169.489 52.7926C169.283 53.1422 169.045 53.5277 168.776 53.9491C168.507 54.3614 168.225 54.7828 167.929 55.2131C167.633 55.6345 167.337 56.0558 167.042 56.4772ZM176.21 59.5431C176.031 59.9824 175.78 60.3634 175.457 60.6862C175.135 60.9999 174.745 61.2465 174.287 61.4258C173.839 61.614 173.342 61.7126 172.795 61.7216C172.239 61.7306 171.737 61.6499 171.289 61.4796C170.849 61.3092 170.468 61.0717 170.146 60.7668C169.832 60.462 169.59 60.1079 169.419 59.7045C169.249 59.2921 169.159 58.8484 169.151 58.3732C169.142 57.8533 169.213 57.3692 169.366 56.9209C169.518 56.4637 169.742 56.0648 170.038 55.7241C170.343 55.3834 170.715 55.11 171.154 54.9038C171.593 54.6976 172.095 54.5811 172.66 54.5542C173.234 54.5273 173.758 54.599 174.234 54.7693C174.709 54.9307 175.112 55.1683 175.444 55.4821C175.785 55.7958 176.045 56.1724 176.224 56.6116C176.403 57.0509 176.493 57.5395 176.493 58.0774C176.493 58.6063 176.399 59.0949 176.21 59.5431ZM173.776 60.3231C174.054 60.1886 174.292 60.0138 174.489 59.7986C174.686 59.5745 174.839 59.3101 174.946 59.0052C175.054 58.6915 175.103 58.3463 175.094 57.9698C175.076 57.2616 174.857 56.7058 174.435 56.3023C174.023 55.8989 173.427 55.7151 172.647 55.751C172.306 55.7689 172.006 55.8451 171.746 55.9796C171.486 56.1141 171.266 56.2934 171.087 56.5175C170.917 56.7327 170.782 56.9837 170.684 57.2705C170.594 57.5485 170.549 57.8488 170.549 58.1715C170.549 58.8977 170.746 59.4759 171.141 59.9062C171.535 60.3365 172.113 60.5427 172.875 60.5248C173.198 60.5158 173.498 60.4486 173.776 60.3231ZM182.69 55.1324C182.69 54.8814 182.731 54.72 182.811 54.6483C182.892 54.5676 183.076 54.5273 183.363 54.5273C183.65 54.5273 183.829 54.5766 183.901 54.6752C183.972 54.7649 184.008 54.9038 184.008 55.0921C184.008 55.5583 184.008 56.0558 184.008 56.5847C184.008 57.1137 184.004 57.6426 183.995 58.1715C183.986 58.7004 183.972 59.2114 183.954 59.7045C183.945 60.1976 183.923 60.6413 183.887 61.0358C183.869 61.2689 183.811 61.4482 183.712 61.5737C183.614 61.6992 183.448 61.7619 183.215 61.7619C183.071 61.7619 182.946 61.7351 182.838 61.6813C182.731 61.6275 182.668 61.5199 182.65 61.3585C182.632 61.233 182.619 61.1254 182.61 61.0358C182.61 60.9461 182.61 60.8341 182.61 60.6996C182.412 60.9865 182.139 61.2285 181.789 61.4258C181.449 61.623 181.095 61.7306 180.727 61.7485C180.279 61.7754 179.875 61.7261 179.517 61.6006C179.167 61.484 178.862 61.3047 178.602 61.0627C178.351 60.8206 178.154 60.5293 178.011 60.1886C177.867 59.839 177.787 59.4535 177.769 59.0321C177.76 58.6915 177.751 58.3687 177.742 58.0639C177.733 57.7502 177.724 57.4409 177.715 57.1361C177.715 56.8223 177.71 56.5041 177.701 56.1813C177.701 55.8586 177.701 55.5179 177.701 55.1593C177.701 55.0697 177.706 54.9845 177.715 54.9038C177.724 54.8231 177.746 54.7559 177.782 54.7021C177.827 54.6483 177.894 54.608 177.984 54.5811C178.073 54.5452 178.199 54.5273 178.36 54.5273C178.522 54.5273 178.647 54.5452 178.737 54.5811C178.835 54.608 178.907 54.6528 178.952 54.7156C178.997 54.7693 179.028 54.8411 179.046 54.9307C179.064 55.0114 179.073 55.0966 179.073 55.1862C179.073 55.3655 179.073 55.621 179.073 55.9527C179.082 56.2754 179.086 56.6206 179.086 56.9882C179.086 57.3467 179.086 57.6919 179.086 58.0236C179.095 58.3463 179.104 58.5929 179.113 58.7632C179.131 59.1039 179.199 59.3952 179.315 59.6373C179.441 59.8704 179.589 60.0586 179.759 60.2021C179.929 60.3365 180.117 60.4351 180.324 60.4979C180.53 60.5517 180.732 60.5741 180.929 60.5651C181.198 60.5562 181.44 60.4934 181.655 60.3769C181.87 60.2514 182.054 60.099 182.206 59.9197C182.359 59.7314 182.475 59.5207 182.556 59.2876C182.637 59.0546 182.677 58.817 182.677 58.5749L182.69 55.1324Z" fill="#668EF3"/>
<path d="M84.7358 40.2278C84.3604 40.9577 83.8495 41.5626 83.2029 42.0423C82.5564 42.5428 81.7951 42.9182 80.9191 43.1685C80.0432 43.4188 79.0838 43.5439 78.041 43.5439C77.0607 43.5439 76.1848 43.3875 75.4131 43.0747C74.6414 42.7827 73.974 42.376 73.4109 41.8546C72.8477 41.3332 72.3889 40.7492 72.0343 40.1026C71.7006 39.4352 71.4816 38.7365 71.3774 38.0066C71.2522 37.1306 71.3357 36.5049 71.6276 36.1295C71.9196 35.7541 72.3576 35.4725 72.9416 35.2848C73.5464 35.0763 74.0887 35.0658 74.5684 35.2535C75.0689 35.4204 75.4026 35.8167 75.5695 36.4423C75.6529 36.776 75.7676 37.0993 75.9136 37.4122C76.0805 37.725 76.2682 38.0066 76.4767 38.2568C76.7062 38.5071 76.9669 38.7053 77.2589 38.8512C77.5508 38.9972 77.8845 39.0702 78.26 39.0702C78.9899 39.0702 79.5426 38.9034 79.918 38.5697C80.2934 38.236 80.4812 37.6729 80.4812 36.8803C80.4812 34.7947 80.4812 32.9698 80.4812 31.4055C80.4812 29.8413 80.4812 28.4648 80.4812 27.276C80.4812 26.0872 80.4812 25.0652 80.4812 24.2101C80.502 23.355 80.5229 22.5937 80.5437 21.9263C80.5646 21.3841 80.7731 20.9252 81.1694 20.5498C81.5657 20.1744 82.2539 19.9867 83.2342 19.9867C83.7765 19.9867 84.2144 20.0388 84.5481 20.1431C84.9027 20.2474 85.1738 20.383 85.3615 20.5498C85.5701 20.7167 85.7057 20.9252 85.7682 21.1755C85.8517 21.4049 85.8934 21.6448 85.8934 21.8951C85.8934 25.0026 85.8517 27.8704 85.7682 30.4983C85.7057 33.1262 85.591 35.5142 85.4241 37.6624C85.3615 38.6427 85.1321 39.4978 84.7358 40.2278ZM109.536 36.6926C108.932 38.1108 108.108 39.3205 107.065 40.3216C106.043 41.3227 104.844 42.0944 103.467 42.6367C102.091 43.1998 100.631 43.5022 99.0874 43.5439C97.5231 43.5856 96.0528 43.3562 94.6763 42.8557C93.2997 42.3551 92.1005 41.6043 91.0785 40.6032C90.0566 39.6021 89.2432 38.382 88.6383 36.9429C88.0544 35.483 87.7624 33.8144 87.7624 31.9374C87.7624 30.2689 88.0231 28.7359 88.5445 27.3386C89.0868 25.9203 89.848 24.6898 90.8283 23.647C91.8085 22.5833 92.9973 21.7386 94.3947 21.1129C95.7921 20.4872 97.3563 20.1223 99.0874 20.018C100.777 19.9137 102.32 20.1327 103.717 20.675C105.115 21.1964 106.314 21.9889 107.315 23.0526C108.316 24.0954 109.088 25.3781 109.63 26.9006C110.173 28.4022 110.444 30.0812 110.444 31.9374C110.444 33.6893 110.141 35.2744 109.536 36.6926ZM101.465 38.4133C102.258 38.0587 102.935 37.5686 103.498 36.9429C104.082 36.3172 104.531 35.5664 104.844 34.6904C105.177 33.7936 105.344 32.7925 105.344 31.6871C105.344 30.5191 105.177 29.4868 104.844 28.5899C104.51 27.6931 104.051 26.9423 103.467 26.3374C102.904 25.7326 102.237 25.2842 101.465 24.9922C100.714 24.7002 99.9216 24.5647 99.0874 24.5855C98.1697 24.6272 97.325 24.8254 96.5533 25.1799C95.8025 25.5345 95.1559 26.035 94.6137 26.6816C94.0714 27.3073 93.6439 28.0685 93.331 28.9653C93.0182 29.8413 92.8618 30.8111 92.8618 31.8748C92.8618 33.001 93.0286 34.0126 93.3623 34.9094C93.696 35.7854 94.134 36.5362 94.6763 37.1619C95.2394 37.7667 95.8859 38.2256 96.6159 38.5384C97.3667 38.8512 98.1488 38.9972 98.9622 38.9764C99.8591 38.9555 100.693 38.7678 101.465 38.4133ZM117.401 28.6838C117.401 29.0801 117.401 29.4346 117.401 29.7475C118.569 29.7892 119.643 29.7892 120.623 29.7475C121.624 29.7057 122.5 29.6432 123.251 29.5598C123.856 29.4972 124.357 29.3095 124.753 28.9966C125.149 28.6838 125.368 28.0998 125.41 27.2447C125.452 26.4522 125.253 25.8786 124.815 25.5241C124.398 25.1695 123.866 24.9714 123.22 24.9296C122.782 24.9088 122.302 24.8984 121.781 24.8984C121.28 24.8775 120.769 24.8775 120.248 24.8984C119.726 24.8984 119.226 24.9192 118.746 24.9609C118.287 24.9818 117.881 25.0131 117.526 25.0548C117.505 25.3885 117.484 25.7639 117.464 26.181C117.464 26.5982 117.453 27.0153 117.432 27.4324C117.432 27.8495 117.422 28.2667 117.401 28.6838ZM117.245 38.82C117.578 38.8408 117.964 38.8617 118.402 38.8825C118.84 38.8825 119.289 38.8825 119.747 38.8825C120.206 38.8825 120.644 38.8825 121.061 38.8825C121.478 38.8617 121.823 38.8304 122.094 38.7887C122.49 38.747 122.855 38.674 123.189 38.5697C123.543 38.4654 123.846 38.3194 124.096 38.1317C124.367 37.944 124.576 37.6937 124.722 37.3809C124.868 37.068 124.941 36.6926 124.941 36.2546C124.92 35.3161 124.638 34.6904 124.096 34.3776C123.574 34.0439 122.907 33.877 122.094 33.877C121.405 33.877 120.602 33.8874 119.685 33.9083C118.788 33.9292 117.995 33.9813 117.307 34.0647L117.245 38.82ZM112.614 22.0202C112.677 21.2068 113.042 20.748 113.709 20.6437C114.273 20.5811 114.961 20.529 115.774 20.4872C116.608 20.4455 117.464 20.4143 118.34 20.3934C119.236 20.3517 120.091 20.3308 120.905 20.3308C121.718 20.3308 122.386 20.3308 122.907 20.3308C124.2 20.3517 125.326 20.5185 126.286 20.8314C127.245 21.1234 128.048 21.5405 128.695 22.0828C129.341 22.6042 129.821 23.2299 130.134 23.9598C130.447 24.6689 130.603 25.4511 130.603 26.3062C130.603 27.0778 130.499 27.7765 130.29 28.4022C130.082 29.0071 129.79 29.5389 129.414 29.9977C129.06 30.4566 128.643 30.8424 128.163 31.1553C127.683 31.4681 127.162 31.6975 126.599 31.8435C127.099 31.9269 127.568 32.1147 128.006 32.4066C128.465 32.6778 128.851 33.0428 129.164 33.5016C129.477 33.9396 129.717 34.4506 129.884 35.0345C130.071 35.5977 130.155 36.2025 130.134 36.849C130.092 37.8293 129.863 38.7053 129.446 39.4769C129.049 40.2486 128.507 40.9056 127.819 41.4479C127.13 41.9901 126.317 42.4073 125.379 42.6992C124.461 43.0121 123.47 43.1894 122.407 43.2311C121.218 43.2728 119.966 43.2832 118.652 43.2624C117.359 43.2624 116.15 43.2102 115.023 43.1059C113.376 42.9391 112.521 42.0527 112.458 40.4468C112.395 38.9868 112.354 37.4747 112.333 35.9105C112.312 34.3254 112.312 32.7403 112.333 31.1553C112.354 29.5702 112.385 28.006 112.427 26.4626C112.468 24.8984 112.531 23.4176 112.614 22.0202ZM136.85 26.9944C136.495 27.5993 136.088 28.1102 135.63 28.5274C135.192 28.9445 134.754 29.2573 134.316 29.4659C134.149 29.5493 133.94 29.591 133.69 29.591C133.461 29.5702 133.21 29.4659 132.939 29.2782C132.668 29.0905 132.532 28.8819 132.532 28.6525C132.553 28.4231 132.668 28.2249 132.877 28.0581C133.21 27.787 133.513 27.4428 133.784 27.0257C134.076 26.6086 134.295 26.2227 134.441 25.8682C134.587 25.4511 134.524 25.2112 134.253 25.1486C133.627 24.9818 133.116 24.6481 132.72 24.1475C132.345 23.647 132.157 23.0421 132.157 22.333C132.157 21.4571 132.418 20.7584 132.939 20.237C133.481 19.6947 134.191 19.4236 135.066 19.4236C135.922 19.4236 136.61 19.6947 137.131 20.237C137.653 20.7792 137.934 21.4779 137.976 22.333C138.039 23.2716 137.955 24.1371 137.726 24.9296C137.517 25.7013 137.225 26.3896 136.85 26.9944ZM141.889 42.3238C141.451 42.0944 141.107 41.8337 140.856 41.5417C140.418 41.1037 140.178 40.6345 140.137 40.1339C140.095 39.6334 140.272 39.1432 140.669 38.6635C141.065 38.1838 141.44 37.9336 141.795 37.9127C142.17 37.871 142.494 37.9336 142.765 38.1004C143.724 38.6427 144.704 39.0181 145.705 39.2267C146.707 39.4352 147.676 39.4978 148.615 39.4144C148.803 39.3935 148.969 39.3309 149.115 39.2267C149.282 39.1224 149.387 38.9868 149.428 38.82C149.491 38.4237 149.355 38.1526 149.022 38.0066C148.146 37.652 147.186 37.3183 146.143 37.0055C145.101 36.6718 144.079 36.2963 143.078 35.8792C141.993 35.4412 141.127 34.8155 140.481 34.0022C139.855 33.1888 139.595 32.1772 139.699 30.9676C139.824 29.591 140.502 28.4857 141.732 27.6514C142.963 26.8171 144.579 26.3583 146.581 26.2749C147.249 26.254 147.937 26.2853 148.646 26.3687C149.355 26.4522 150.023 26.5877 150.648 26.7754C151.295 26.9423 151.879 27.1508 152.4 27.4011C152.943 27.6514 153.36 27.9121 153.652 28.1832C154.069 28.6004 154.319 29.0592 154.403 29.5598C154.486 30.0603 154.392 30.5504 154.121 31.0301C153.787 31.5724 153.391 31.9374 152.932 32.1251C152.473 32.2919 152.098 32.2919 151.806 32.1251C150.909 31.6037 149.971 31.197 148.99 30.905C148.031 30.613 147.155 30.4461 146.362 30.4044C145.883 30.3836 145.528 30.4253 145.299 30.5296C145.069 30.6339 144.902 30.832 144.798 31.124C144.61 31.7497 144.809 32.1981 145.393 32.4692C146.206 32.8446 147.145 33.2096 148.208 33.5642C149.272 33.8979 150.315 34.242 151.337 34.5966C152.609 35.0554 153.495 35.6915 153.996 36.5049C154.517 37.3183 154.684 38.2777 154.496 39.3831C154.246 40.8639 153.495 41.9171 152.244 42.5428C150.993 43.1685 149.22 43.4814 146.926 43.4814C146.321 43.4814 145.716 43.4292 145.111 43.3249C144.506 43.2415 143.933 43.1059 143.39 42.9182C142.848 42.7514 142.348 42.5532 141.889 42.3238ZM169.766 28.6838C169.766 29.0801 169.766 29.4346 169.766 29.7475C170.934 29.7892 172.008 29.7892 172.988 29.7475C173.989 29.7057 174.865 29.6432 175.616 29.5598C176.221 29.4972 176.721 29.3095 177.118 28.9966C177.514 28.6838 177.733 28.0998 177.775 27.2447C177.816 26.4522 177.618 25.8786 177.18 25.5241C176.763 25.1695 176.231 24.9714 175.585 24.9296C175.147 24.9088 174.667 24.8984 174.146 24.8984C173.645 24.8775 173.134 24.8775 172.613 24.8984C172.091 24.8984 171.591 24.9192 171.111 24.9609C170.652 24.9818 170.246 25.0131 169.891 25.0548C169.87 25.3885 169.849 25.7639 169.828 26.181C169.828 26.5982 169.818 27.0153 169.797 27.4324C169.797 27.8495 169.787 28.2667 169.766 28.6838ZM169.609 38.82C169.943 38.8408 170.329 38.8617 170.767 38.8825C171.205 38.8825 171.653 38.8825 172.112 38.8825C172.571 38.8825 173.009 38.8825 173.426 38.8825C173.843 38.8617 174.187 38.8304 174.459 38.7887C174.855 38.747 175.22 38.674 175.554 38.5697C175.908 38.4654 176.21 38.3194 176.461 38.1317C176.732 37.944 176.94 37.6937 177.086 37.3809C177.232 37.068 177.305 36.6926 177.305 36.2546C177.285 35.3161 177.003 34.6904 176.461 34.3776C175.939 34.0439 175.272 33.877 174.459 33.877C173.77 33.877 172.967 33.8874 172.05 33.9083C171.153 33.9292 170.36 33.9813 169.672 34.0647L169.609 38.82ZM164.979 22.0202C165.042 21.2068 165.407 20.748 166.074 20.6437C166.637 20.5811 167.326 20.529 168.139 20.4872C168.973 20.4455 169.828 20.4143 170.704 20.3934C171.601 20.3517 172.456 20.3308 173.27 20.3308C174.083 20.3308 174.751 20.3308 175.272 20.3308C176.565 20.3517 177.691 20.5185 178.651 20.8314C179.61 21.1234 180.413 21.5405 181.06 22.0828C181.706 22.6042 182.186 23.2299 182.499 23.9598C182.812 24.6689 182.968 25.4511 182.968 26.3062C182.968 27.0778 182.864 27.7765 182.655 28.4022C182.447 29.0071 182.155 29.5389 181.779 29.9977C181.425 30.4566 181.007 30.8424 180.528 31.1553C180.048 31.4681 179.527 31.6975 178.964 31.8435C179.464 31.9269 179.933 32.1147 180.371 32.4066C180.83 32.6778 181.216 33.0428 181.529 33.5016C181.842 33.9396 182.082 34.4506 182.248 35.0345C182.436 35.5977 182.52 36.2025 182.499 36.849C182.457 37.8293 182.228 38.7053 181.81 39.4769C181.414 40.2486 180.872 40.9056 180.184 41.4479C179.495 41.9901 178.682 42.4073 177.743 42.6992C176.826 43.0121 175.835 43.1894 174.771 43.2311C173.583 43.2728 172.331 43.2832 171.017 43.2624C169.724 43.2624 168.515 43.2102 167.388 43.1059C165.741 42.9391 164.886 42.0527 164.823 40.4468C164.76 38.9868 164.719 37.4747 164.698 35.9105C164.677 34.3254 164.677 32.7403 164.698 31.1553C164.719 29.5702 164.75 28.006 164.792 26.4626C164.833 24.8984 164.896 23.4176 164.979 22.0202ZM198.017 37.5373C198.288 37.579 198.653 37.7459 199.111 38.0379C199.549 38.3507 199.862 38.7261 200.05 39.1641C200.238 39.5812 200.196 40.0296 199.925 40.5093C199.383 41.427 198.475 42.157 197.203 42.6992C195.952 43.2415 194.45 43.5231 192.698 43.5439C189.695 43.5648 187.463 42.8661 186.003 41.4479C184.564 40.0296 183.845 38.0274 183.845 35.4412C183.845 34.1273 184.022 32.9176 184.376 31.8122C184.731 30.7069 185.263 29.7579 185.972 28.9653C186.681 28.1728 187.547 27.5471 188.569 27.0883C189.591 26.6086 190.779 26.3374 192.135 26.2749C193.532 26.2123 194.794 26.4313 195.92 26.9319C197.068 27.4324 198.017 28.1102 198.767 28.9653C199.518 29.7996 200.05 30.7694 200.363 31.8748C200.697 32.9802 200.77 34.1273 200.582 35.3161C200.519 35.6707 200.425 35.9418 200.3 36.1295C200.175 36.3172 199.977 36.4215 199.706 36.4423C197.85 36.5883 196.014 36.7239 194.2 36.849C192.406 36.9742 190.581 37.0889 188.725 37.1932C188.704 38.0691 189.027 38.6844 189.695 39.039C190.383 39.3727 191.415 39.5395 192.792 39.5395C193.626 39.5395 194.408 39.3935 195.138 39.1015C195.868 38.8095 196.484 38.4446 196.984 38.0066C197.401 37.652 197.745 37.4956 198.017 37.5373ZM194.012 33.3452C194.68 33.2826 195.211 33.2305 195.608 33.1888C195.649 32.3128 195.378 31.635 194.794 31.1553C194.21 30.6547 193.272 30.4461 191.979 30.5296C190.727 30.613 189.862 30.9571 189.382 31.562C188.902 32.1668 188.673 32.8759 188.694 33.6893C188.965 33.6893 189.403 33.6685 190.008 33.6267C190.613 33.585 191.259 33.5433 191.947 33.5016C192.656 33.439 193.345 33.3869 194.012 33.3452ZM216.286 37.5373C216.557 37.579 216.922 37.7459 217.381 38.0379C217.819 38.3507 218.132 38.7261 218.32 39.1641C218.507 39.5812 218.466 40.0296 218.195 40.5093C217.652 41.427 216.745 42.157 215.473 42.6992C214.221 43.2415 212.72 43.5231 210.968 43.5439C207.965 43.5648 205.733 42.8661 204.273 41.4479C202.834 40.0296 202.114 38.0274 202.114 35.4412C202.114 34.1273 202.292 32.9176 202.646 31.8122C203.001 30.7069 203.533 29.7579 204.242 28.9653C204.951 28.1728 205.816 27.5471 206.838 27.0883C207.86 26.6086 209.049 26.3374 210.405 26.2749C211.802 26.2123 213.064 26.4313 214.19 26.9319C215.337 27.4324 216.286 28.1102 217.037 28.9653C217.788 29.7996 218.32 30.7694 218.633 31.8748C218.966 32.9802 219.039 34.1273 218.852 35.3161C218.789 35.6707 218.695 35.9418 218.57 36.1295C218.445 36.3172 218.247 36.4215 217.976 36.4423C216.119 36.5883 214.284 36.7239 212.469 36.849C210.676 36.9742 208.851 37.0889 206.995 37.1932C206.974 38.0691 207.297 38.6844 207.965 39.039C208.653 39.3727 209.685 39.5395 211.062 39.5395C211.896 39.5395 212.678 39.3935 213.408 39.1015C214.138 38.8095 214.753 38.4446 215.254 38.0066C215.671 37.652 216.015 37.4956 216.286 37.5373ZM212.282 33.3452C212.949 33.2826 213.481 33.2305 213.877 33.1888C213.919 32.3128 213.648 31.635 213.064 31.1553C212.48 30.6547 211.541 30.4461 210.248 30.5296C208.997 30.613 208.131 30.9571 207.652 31.562C207.172 32.1668 206.943 32.8759 206.963 33.6893C207.235 33.6893 207.673 33.6685 208.277 33.6267C208.882 33.585 209.529 33.5433 210.217 33.5016C210.926 33.439 211.614 33.3869 212.282 33.3452Z" fill="#414CA9"/>
</svg>
