<svg width="650" height="130" viewBox="0 0 650 130" fill="none" xmlns="http://www.w3.org/2000/svg">
<path d="M27 130V66H71V130L49 113.628L27 130Z" fill="#7591DA"/>
<path d="M49 0L56.1474 8.46531L65.759 2.95506L69.58 13.3544L80.4966 11.4638L80.5304 22.5429L91.4352 24.5L87.6777 34.9225L97.2556 40.4912L90.16 49L97.2556 57.5088L87.6777 63.0775L91.4352 73.5L80.5304 75.4571L80.4966 86.5362L69.58 84.6456L65.759 95.0449L56.1474 89.5347L49 98L41.8526 89.5347L32.241 95.0449L28.42 84.6456L17.5034 86.5362L17.4696 75.4571L6.56475 73.5L10.3223 63.0775L0.744419 57.5088L7.84 49L0.744419 40.4912L10.3223 34.9225L6.56475 24.5L17.4696 22.5429L17.5034 11.4638L28.42 13.3544L32.241 2.95506L41.8526 8.46531L49 0Z" fill="#FFD335"/>
<path d="M49.4004 27H54.5004V65H48.0004V35.9L42.2504 40.8L38.8004 36.1L49.4004 27Z" fill="#867415"/>
<path d="M157 130V66H201V130L179 113.628L157 130Z" fill="#7591DA"/>
<path d="M179 0L186.147 8.46531L195.759 2.95506L199.58 13.3544L210.497 11.4638L210.53 22.5429L221.435 24.5L217.678 34.9225L227.256 40.4912L220.16 49L227.256 57.5088L217.678 63.0775L221.435 73.5L210.53 75.4571L210.497 86.5362L199.58 84.6456L195.759 95.0449L186.147 89.5347L179 98L171.853 89.5347L162.241 95.0449L158.42 84.6456L147.503 86.5362L147.47 75.4571L136.565 73.5L140.322 63.0775L130.744 57.5088L137.84 49L130.744 40.4912L140.322 34.9225L136.565 24.5L147.47 22.5429L147.503 11.4638L158.42 13.3544L162.241 2.95506L171.853 8.46531L179 0Z" fill="#CBCBCB"/>
<path d="M191.957 37.75C191.957 39.2167 191.724 40.5667 191.257 41.8C190.824 43.0333 190.241 44.1833 189.507 45.25C188.774 46.3167 187.957 47.3167 187.057 48.25C186.157 49.15 185.257 50 184.357 50.8L174.757 59.5H192.857V65H165.057V60.75L180.307 46.55C180.941 45.95 181.557 45.3333 182.157 44.7C182.791 44.0667 183.341 43.4 183.807 42.7C184.307 41.9667 184.707 41.2 185.007 40.4C185.307 39.6 185.457 38.7167 185.457 37.75C185.457 36.8833 185.291 36.0833 184.957 35.35C184.624 34.5833 184.141 33.9167 183.507 33.35C182.907 32.7833 182.157 32.35 181.257 32.05C180.391 31.7167 179.424 31.55 178.357 31.55C177.491 31.55 176.641 31.7333 175.807 32.1C175.007 32.4667 174.241 32.9667 173.507 33.6C172.807 34.2 172.124 34.9333 171.457 35.8C170.824 36.6333 170.257 37.55 169.757 38.55L164.907 35.35C165.574 34.0167 166.357 32.7833 167.257 31.65C168.191 30.5167 169.224 29.5333 170.357 28.7C171.524 27.8667 172.774 27.2167 174.107 26.75C175.441 26.2833 176.857 26.05 178.357 26.05C180.457 26.05 182.341 26.3667 184.007 27C185.674 27.6 187.091 28.4333 188.257 29.5C189.457 30.5333 190.374 31.7667 191.007 33.2C191.641 34.6 191.957 36.1167 191.957 37.75Z" fill="#4B4B4B"/>
<path d="M287 130V66H331V130L309 113.628L287 130Z" fill="#7591DA"/>
<path d="M309 0L316.147 8.46531L325.759 2.95506L329.58 13.3544L340.497 11.4638L340.53 22.5429L351.435 24.5L347.678 34.9225L357.256 40.4912L350.16 49L357.256 57.5088L347.678 63.0775L351.435 73.5L340.53 75.4571L340.497 86.5362L329.58 84.6456L325.759 95.0449L316.147 89.5347L309 98L301.853 89.5347L292.241 95.0449L288.42 84.6456L277.503 86.5362L277.47 75.4571L266.565 73.5L270.322 63.0775L260.744 57.5088L267.84 49L260.744 40.4912L270.322 34.9225L266.565 24.5L277.47 22.5429L277.503 11.4638L288.42 13.3544L292.241 2.95506L301.853 8.46531L309 0Z" fill="#936D59"/>
<path d="M308.657 60.45C309.924 60.45 311.041 60.2667 312.007 59.9C313.007 59.5333 313.841 59.0333 314.507 58.4C315.174 57.7333 315.674 56.9667 316.007 56.1C316.341 55.2333 316.507 54.3 316.507 53.3C316.507 52.3 316.324 51.3833 315.957 50.55C315.591 49.7167 315.057 48.9833 314.357 48.35C313.657 47.7167 312.807 47.2333 311.807 46.9C310.841 46.5333 309.741 46.35 308.507 46.35C307.541 46.35 306.607 46.55 305.707 46.95C304.841 47.35 304.207 47.7 303.807 48L301.357 43.6L312.357 32.55H296.657V27.05H321.757V31.35L311.707 41.15C313.541 41.35 315.157 41.8167 316.557 42.55C317.991 43.2833 319.174 44.2 320.107 45.3C321.074 46.4 321.791 47.6333 322.257 49C322.757 50.3667 323.007 51.8 323.007 53.3C323.007 55.0667 322.674 56.7167 322.007 58.25C321.374 59.7833 320.441 61.1333 319.207 62.3C317.974 63.4333 316.457 64.3333 314.657 65C312.891 65.6333 310.891 65.95 308.657 65.95C307.124 65.95 305.641 65.7167 304.207 65.25C302.807 64.8167 301.491 64.2167 300.257 63.45C299.057 62.65 297.957 61.7 296.957 60.6C295.991 59.5 295.174 58.3 294.507 57L299.207 53.55C300.241 55.6167 301.574 57.2833 303.207 58.55C304.841 59.8167 306.657 60.45 308.657 60.45Z" fill="#FAAC81"/>
</svg>
