<svg width="160" height="80" viewBox="0 0 160 80" fill="none" xmlns="http://www.w3.org/2000/svg">
<path fill-rule="evenodd" clip-rule="evenodd" d="M11.0938 45.7806L17.1875 46.2494C18.0469 46.3275 18.75 46.9501 18.75 47.8119V50.6861L17.4824 56.2431C17.3367 56.9712 16.8484 57.4994 16.1063 57.4994H9.15586C8.81995 57.4993 8.48624 57.4451 8.16758 57.3388L5.18711 56.3454C5.08513 56.3115 4.98059 56.2864 4.87466 56.2704V47.4646L9.5875 40.0724C9.60531 40.0444 9.63156 40.0228 9.66246 40.0107C9.69336 39.9986 9.72731 39.9967 9.75938 40.0052L11.1145 40.39C11.9617 40.6529 12.2266 41.2494 11.9922 42.2884L11.0938 45.7806ZM3.87466 48.1251H0V56.2494H3.87466V48.1251Z" fill="#999999"/>
<path fill-rule="evenodd" clip-rule="evenodd" d="M51.0938 45.7806L57.1875 46.2494C58.0469 46.3275 58.75 46.9501 58.75 47.8119V50.6861L57.4824 56.2431C57.3367 56.9712 56.8484 57.4994 56.1063 57.4994H49.1559C48.8199 57.4993 48.4862 57.4451 48.1676 57.3388L45.1871 56.3454C45.0851 56.3115 44.9806 56.2864 44.8747 56.2704V47.4646L49.5875 40.0724C49.6053 40.0444 49.6316 40.0228 49.6625 40.0107C49.6934 39.9986 49.7273 39.9967 49.7594 40.0052L51.1145 40.39C51.9617 40.6529 52.2266 41.2494 51.9922 42.2884L51.0938 45.7806ZM43.8747 48.1251H40V56.2494H43.8747V48.1251Z" fill="#668EF3"/>
<path d="M98.6987 20.6245C98.9909 20.6231 99.2707 20.5059 99.4766 20.2986C99.6826 20.0913 99.7979 19.8107 99.7974 19.5185C99.7948 19.4074 99.7775 19.2972 99.7458 19.1906L98.9543 16.3276C98.9212 16.2219 98.9586 16.1154 99.0072 16.0312L99.0166 16.014C99.0201 16.0084 99.0364 15.9856 99.048 15.9688C99.0596 15.9521 99.0729 15.934 99.085 15.9164L99.0931 15.9048C100.093 14.3901 100.625 12.6153 100.625 10.8006C100.633 8.326 99.6646 5.98807 97.8982 4.21432C96.0703 2.38299 93.6253 1.37451 91.0077 1.37451C88.7871 1.37342 86.6323 2.12875 84.8984 3.51608C83.2033 4.88033 82.0251 6.7817 81.5808 8.87342C81.444 9.50885 81.3752 10.157 81.3754 10.807C81.3754 13.3392 82.3482 15.7175 84.1151 17.5046C85.8974 19.3092 88.2908 20.3001 90.8539 20.3001C91.7562 20.3001 92.9108 20.0698 93.4651 19.9134C94.1319 19.7269 94.764 19.4837 94.8336 19.4579C94.9073 19.4297 94.9855 19.4151 95.0644 19.4149C95.1499 19.4144 95.2347 19.4312 95.3136 19.4644L95.3501 19.4785L98.2496 20.5261C98.3921 20.5861 98.5442 20.6194 98.6987 20.6245Z" fill="#283AD3"/>
<path d="M92.71 13.32H89.55L88.98 14.9H87.1L90.26 6.75H92.15L95.31 14.9H93.28L92.71 13.32ZM92.15 11.74L91.13 8.9L90.11 11.74H92.15Z" fill="white"/>
<path d="M129.329 2.06677C130.189 1.00309 131.811 1.00309 132.671 2.06677C133.205 2.72766 134.079 3.01151 134.899 2.79086C136.22 2.43572 137.532 3.38894 137.602 4.75488C137.646 5.60356 138.186 6.34669 138.98 6.65056C140.257 7.13962 140.758 8.68195 140.012 9.82841C139.549 10.5407 139.549 11.4593 140.012 12.1716C140.758 13.318 140.257 14.8604 138.98 15.3494C138.186 15.6533 137.646 16.3964 137.602 17.2451C137.532 18.6111 136.22 19.5643 134.899 19.2091C134.079 18.9885 133.205 19.2723 132.671 19.9332C131.811 20.9969 130.189 20.9969 129.329 19.9332C128.795 19.2723 127.921 18.9885 127.101 19.2091C125.78 19.5643 124.468 18.6111 124.398 17.2451C124.354 16.3964 123.814 15.6533 123.02 15.3494C121.743 14.8604 121.242 13.318 121.988 12.1716C122.451 11.4593 122.451 10.5407 121.988 9.82841C121.242 8.68195 121.743 7.13961 123.02 6.65055C123.814 6.34669 124.354 5.60356 124.398 4.75488C124.468 3.38894 125.78 2.43572 127.101 2.79086C127.921 3.01151 128.795 2.72766 129.329 2.06677Z" fill="#D9D9D9"/>
<circle cx="131" cy="10.9999" r="6.6" fill="white"/>
<path d="M128.17 10.9999L130.37 13.1999L134.142 9.42847" stroke="#283AD3" stroke-width="2" stroke-linecap="round"/>
<path d="M9.97183 1.70846C10.4382 0.933481 11.5618 0.933482 12.0282 1.70847L14.3586 5.58087C14.5262 5.85928 14.7995 6.05784 15.116 6.13116L19.5191 7.15091C20.4002 7.35499 20.7474 8.42356 20.1545 9.10661L17.1918 12.5196C16.9788 12.765 16.8744 13.0863 16.9025 13.41L17.2932 17.9127C17.3714 18.8138 16.4625 19.4742 15.6296 19.1214L11.4681 17.3583C11.1689 17.2316 10.8311 17.2316 10.5319 17.3583L6.37038 19.1214C5.53754 19.4742 4.62856 18.8138 4.70677 17.9127L5.09754 13.41C5.12563 13.0863 5.02124 12.765 4.80823 12.5196L1.8455 9.1066C1.25257 8.42356 1.59977 7.35499 2.48095 7.15091L6.88397 6.13116C7.20053 6.05784 7.47383 5.85928 7.64138 5.58087L9.97183 1.70846Z" fill="#9CA5B3"/>
<path d="M49.9718 1.70846C50.4382 0.933481 51.5618 0.933482 52.0282 1.70847L54.3586 5.58087C54.5262 5.85928 54.7995 6.05784 55.116 6.13116L59.5191 7.15091C60.4002 7.35499 60.7474 8.42356 60.1545 9.10661L57.1918 12.5196C56.9788 12.765 56.8744 13.0863 56.9025 13.41L57.2932 17.9127C57.3714 18.8138 56.4625 19.4742 55.6296 19.1214L51.4681 17.3583C51.1689 17.2316 50.8311 17.2316 50.5319 17.3583L46.3704 19.1214C45.5375 19.4742 44.6286 18.8138 44.7068 17.9127L45.0975 13.41C45.1256 13.0863 45.0212 12.765 44.8082 12.5196L41.8455 9.1066C41.2526 8.42356 41.5998 7.35499 42.4809 7.15091L46.884 6.13116C47.2005 6.05784 47.4738 5.85928 47.6414 5.58087L49.9718 1.70846Z" fill="#FFD335"/>
</svg>
