<svg width="603" height="131" viewBox="0 0 603 131" fill="none" xmlns="http://www.w3.org/2000/svg">
<path d="M27 130V66H71V130L49 113.628L27 130Z" fill="#7591DA"/>
<path d="M49 0L56.1474 8.46531L65.759 2.95506L69.58 13.3544L80.4966 11.4638L80.5304 22.5429L91.4352 24.5L87.6777 34.9225L97.2556 40.4912L90.16 49L97.2556 57.5088L87.6777 63.0775L91.4352 73.5L80.5304 75.4571L80.4966 86.5362L69.58 84.6456L65.759 95.0449L56.1474 89.5347L49 98L41.8526 89.5347L32.241 95.0449L28.42 84.6456L17.5034 86.5362L17.4696 75.4571L6.56475 73.5L10.3223 63.0775L0.744419 57.5088L7.84 49L0.744419 40.4912L10.3223 34.9225L6.56475 24.5L17.4696 22.5429L17.5034 11.4638L28.42 13.3544L32.241 2.95506L41.8526 8.46531L49 0Z" fill="#FFD335"/>
<path d="M49.4004 27H54.5004V65H48.0004V35.9L42.2504 40.8L38.8004 36.1L49.4004 27Z" fill="#867415"/>
<path d="M147 131V67H191V131L169 114.628L147 131Z" fill="#7591DA"/>
<path d="M169 1L176.147 9.46531L185.759 3.95506L189.58 14.3544L200.497 12.4638L200.53 23.5429L211.435 25.5L207.678 35.9225L217.256 41.4912L210.16 50L217.256 58.5088L207.678 64.0775L211.435 74.5L200.53 76.4571L200.497 87.5362L189.58 85.6456L185.759 96.0449L176.147 90.5347L169 99L161.853 90.5347L152.241 96.0449L148.42 85.6456L137.503 87.5362L137.47 76.4571L126.565 74.5L130.322 64.0775L120.744 58.5088L127.84 50L120.744 41.4912L130.322 35.9225L126.565 25.5L137.47 23.5429L137.503 12.4638L148.42 14.3544L152.241 3.95506L161.853 9.46531L169 1Z" fill="#CBCBCB"/>
<path d="M181.957 38.75C181.957 40.2167 181.724 41.5667 181.257 42.8C180.824 44.0333 180.241 45.1833 179.507 46.25C178.774 47.3167 177.957 48.3167 177.057 49.25C176.157 50.15 175.257 51 174.357 51.8L164.757 60.5H182.857V66H155.057V61.75L170.307 47.55C170.941 46.95 171.557 46.3333 172.157 45.7C172.791 45.0667 173.341 44.4 173.807 43.7C174.307 42.9667 174.707 42.2 175.007 41.4C175.307 40.6 175.457 39.7167 175.457 38.75C175.457 37.8833 175.291 37.0833 174.957 36.35C174.624 35.5833 174.141 34.9167 173.507 34.35C172.907 33.7833 172.157 33.35 171.257 33.05C170.391 32.7167 169.424 32.55 168.357 32.55C167.491 32.55 166.641 32.7333 165.807 33.1C165.007 33.4667 164.241 33.9667 163.507 34.6C162.807 35.2 162.124 35.9333 161.457 36.8C160.824 37.6333 160.257 38.55 159.757 39.55L154.907 36.35C155.574 35.0167 156.357 33.7833 157.257 32.65C158.191 31.5167 159.224 30.5333 160.357 29.7C161.524 28.8667 162.774 28.2167 164.107 27.75C165.441 27.2833 166.857 27.05 168.357 27.05C170.457 27.05 172.341 27.3667 174.007 28C175.674 28.6 177.091 29.4333 178.257 30.5C179.457 31.5333 180.374 32.7667 181.007 34.2C181.641 35.6 181.957 37.1167 181.957 38.75Z" fill="#4B4B4B"/>
<path d="M267 130V66H311V130L289 113.628L267 130Z" fill="#7591DA"/>
<path d="M289 0L296.147 8.46531L305.759 2.95506L309.58 13.3544L320.497 11.4638L320.53 22.5429L331.435 24.5L327.678 34.9225L337.256 40.4912L330.16 49L337.256 57.5088L327.678 63.0775L331.435 73.5L320.53 75.4571L320.497 86.5362L309.58 84.6456L305.759 95.0449L296.147 89.5347L289 98L281.853 89.5347L272.241 95.0449L268.42 84.6456L257.503 86.5362L257.47 75.4571L246.565 73.5L250.322 63.0775L240.744 57.5088L247.84 49L240.744 40.4912L250.322 34.9225L246.565 24.5L257.47 22.5429L257.503 11.4638L268.42 13.3544L272.241 2.95506L281.853 8.46531L289 0Z" fill="#936D59"/>
<path d="M288.657 60.45C289.924 60.45 291.041 60.2667 292.007 59.9C293.007 59.5333 293.841 59.0333 294.507 58.4C295.174 57.7333 295.674 56.9667 296.007 56.1C296.341 55.2333 296.507 54.3 296.507 53.3C296.507 52.3 296.324 51.3833 295.957 50.55C295.591 49.7167 295.057 48.9833 294.357 48.35C293.657 47.7167 292.807 47.2333 291.807 46.9C290.841 46.5333 289.741 46.35 288.507 46.35C287.541 46.35 286.607 46.55 285.707 46.95C284.841 47.35 284.207 47.7 283.807 48L281.357 43.6L292.357 32.55H276.657V27.05H301.757V31.35L291.707 41.15C293.541 41.35 295.157 41.8167 296.557 42.55C297.991 43.2833 299.174 44.2 300.107 45.3C301.074 46.4 301.791 47.6333 302.257 49C302.757 50.3667 303.007 51.8 303.007 53.3C303.007 55.0667 302.674 56.7167 302.007 58.25C301.374 59.7833 300.441 61.1333 299.207 62.3C297.974 63.4333 296.457 64.3333 294.657 65C292.891 65.6333 290.891 65.95 288.657 65.95C287.124 65.95 285.641 65.7167 284.207 65.25C282.807 64.8167 281.491 64.2167 280.257 63.45C279.057 62.65 277.957 61.7 276.957 60.6C275.991 59.5 275.174 58.3 274.507 57L279.207 53.55C280.241 55.6167 281.574 57.2833 283.207 58.55C284.841 59.8167 286.657 60.45 288.657 60.45Z" fill="#FAAC81"/>
<rect x="394.576" y="81.7871" width="38.7417" height="48.2119" fill="white"/>
<path d="M411.856 2.886C412.887 1.46302 415.007 1.46302 416.038 2.886L420.806 9.46527C421.598 10.5586 423.099 10.8572 424.25 10.1502L431.172 5.89633C432.67 4.97629 434.629 5.78773 435.037 7.49701L436.924 15.4C437.237 16.7134 438.51 17.5635 439.843 17.3506L447.867 16.0697C449.602 15.7927 451.101 17.292 450.824 19.0274L449.543 27.0509C449.331 28.3843 450.181 29.6567 451.494 29.9703L459.397 31.8573C461.106 32.2654 461.918 34.2244 460.998 35.7217L456.744 42.6443C456.037 43.7947 456.335 45.2955 457.429 46.0879L464.008 50.8556C465.431 51.8868 465.431 54.0072 464.008 55.0384L457.429 59.8062C456.335 60.5985 456.037 62.0993 456.744 63.2498L460.998 70.1724C461.918 71.6696 461.106 73.6286 459.397 74.0367L451.494 75.9238C450.181 76.2374 449.331 77.5097 449.543 78.8431L450.824 86.8667C451.101 88.602 449.602 90.1014 447.867 89.8243L439.843 88.5434C438.51 88.3305 437.237 89.1807 436.924 90.494L435.037 98.397C434.629 100.106 432.67 100.918 431.172 99.9977L424.25 95.7438C423.099 95.0369 421.598 95.3354 420.806 96.4288L416.038 103.008C415.007 104.431 412.887 104.431 411.856 103.008L407.088 96.4288C406.296 95.3354 404.795 95.0369 403.644 95.7438L396.722 99.9977C395.224 100.918 393.265 100.106 392.857 98.397L390.97 90.494C390.657 89.1807 389.384 88.3305 388.051 88.5434L380.027 89.8243C378.292 90.1014 376.793 88.602 377.07 86.8667L378.351 78.8431C378.564 77.5097 377.713 76.2374 376.4 75.9238L368.497 74.0367C366.788 73.6286 365.976 71.6696 366.896 70.1724L371.15 63.2497C371.857 62.0993 371.559 60.5985 370.465 59.8062L363.886 55.0384C362.463 54.0072 362.463 51.8868 363.886 50.8556L370.465 46.0879C371.559 45.2955 371.857 43.7947 371.15 42.6443L366.896 35.7217C365.976 34.2244 366.788 32.2654 368.497 31.8573L376.4 29.9703C377.713 29.6567 378.564 28.3843 378.351 27.0509L377.07 19.0274C376.793 17.292 378.292 15.7927 380.027 16.0697L388.051 17.3506C389.384 17.5635 390.657 16.7134 390.97 15.4L392.857 7.49701C393.265 5.78773 395.224 4.97629 396.722 5.89633L403.644 10.1502C404.795 10.8572 406.296 10.5586 407.088 9.46527L411.856 2.886Z" fill="#81B3FF"/>
<path d="M415.655 43.0795L403.756 57.1886H415.655V43.0795ZM393.727 58.6618L417.072 31.1802H423.022V57.1886H429.254V63.4215H423.022V74.2441H415.655V63.4215H393.727V58.6618Z" fill="white"/>
<rect x="514.576" y="81.7871" width="38.7417" height="48.2119" fill="white"/>
<path d="M531.856 2.886C532.887 1.46302 535.007 1.46302 536.038 2.886L540.806 9.46527C541.598 10.5586 543.099 10.8572 544.25 10.1502L551.172 5.89633C552.67 4.97629 554.629 5.78773 555.037 7.49701L556.924 15.4C557.237 16.7134 558.51 17.5635 559.843 17.3506L567.867 16.0697C569.602 15.7927 571.101 17.292 570.824 19.0274L569.543 27.0509C569.331 28.3843 570.181 29.6567 571.494 29.9703L579.397 31.8573C581.106 32.2654 581.918 34.2244 580.998 35.7217L576.744 42.6443C576.037 43.7947 576.335 45.2955 577.429 46.0879L584.008 50.8556C585.431 51.8868 585.431 54.0072 584.008 55.0384L577.429 59.8062C576.335 60.5985 576.037 62.0993 576.744 63.2498L580.998 70.1724C581.918 71.6696 581.106 73.6286 579.397 74.0367L571.494 75.9238C570.181 76.2374 569.331 77.5097 569.543 78.8431L570.824 86.8667C571.101 88.602 569.602 90.1014 567.867 89.8243L559.843 88.5434C558.51 88.3305 557.237 89.1807 556.924 90.494L555.037 98.397C554.629 100.106 552.67 100.918 551.172 99.9977L544.25 95.7438C543.099 95.0369 541.598 95.3354 540.806 96.4288L536.038 103.008C535.007 104.431 532.887 104.431 531.856 103.008L527.088 96.4288C526.296 95.3354 524.795 95.0369 523.644 95.7438L516.722 99.9977C515.224 100.918 513.265 100.106 512.857 98.397L510.97 90.494C510.657 89.1807 509.384 88.3305 508.051 88.5434L500.027 89.8243C498.292 90.1014 496.793 88.602 497.07 86.8667L498.351 78.8431C498.564 77.5097 497.713 76.2374 496.4 75.9238L488.497 74.0367C486.788 73.6286 485.976 71.6696 486.896 70.1724L491.15 63.2497C491.857 62.0993 491.559 60.5985 490.465 59.8062L483.886 55.0384C482.463 54.0072 482.463 51.8868 483.886 50.8556L490.465 46.0879C491.559 45.2955 491.857 43.7947 491.15 42.6443L486.896 35.7217C485.976 34.2244 486.788 32.2654 488.497 31.8573L496.4 29.9703C497.713 29.6567 498.564 28.3843 498.351 27.0509L497.07 19.0274C496.793 17.292 498.292 15.7927 500.027 16.0697L508.051 17.3506C509.384 17.5635 510.657 16.7134 510.97 15.4L512.857 7.49701C513.265 5.78773 515.224 4.97629 516.722 5.89633L523.644 10.1502C524.795 10.8572 526.296 10.5586 527.088 9.46527L531.856 2.886Z" fill="#81B3FF"/>
<path d="M547.848 31.2369V37.4698H530.112L528.639 46.0826C529.394 45.7804 530.188 45.5537 531.019 45.4026C531.888 45.2138 532.794 45.1193 533.739 45.1193C536.345 45.1193 538.63 45.516 540.595 46.3093C542.559 47.1025 544.202 48.1791 545.524 49.539C546.847 50.899 547.829 52.5044 548.471 54.3554C549.151 56.2064 549.491 58.1896 549.491 60.305C549.491 62.496 549.113 64.517 548.358 66.368C547.64 68.1812 546.582 69.7678 545.184 71.1277C543.825 72.4498 542.125 73.4886 540.085 74.2441C538.083 74.9619 535.797 75.3207 533.229 75.3207C531.529 75.3207 529.885 75.0752 528.299 74.5841C526.75 74.093 525.296 73.4131 523.936 72.5442C522.576 71.6376 521.329 70.5799 520.196 69.3711C519.101 68.1245 518.156 66.7457 517.363 65.2347L522.803 61.325C524.011 63.5537 525.466 65.4047 527.166 66.8779C528.866 68.3512 530.887 69.0878 533.229 69.0878C534.589 69.0878 535.816 68.88 536.912 68.4645C538.007 68.0112 538.933 67.4068 539.688 66.6513C540.481 65.8958 541.086 64.9892 541.501 63.9315C541.917 62.836 542.125 61.6272 542.125 60.305C542.125 57.6985 541.426 55.5642 540.028 53.9021C538.668 52.2022 536.572 51.3523 533.739 51.3523C531.736 51.3523 529.999 51.7111 528.526 52.4289C527.052 53.1466 525.976 53.9399 525.296 54.8087L520.366 52.7122L524.049 31.2369H547.848Z" fill="white"/>
</svg>
