<svg width="279" height="35" viewBox="0 0 279 35" fill="none" xmlns="http://www.w3.org/2000/svg">
<line x1="1.5" y1="-1.5" x2="16.2484" y2="-1.5" transform="matrix(-0.736794 0.676117 -0.736794 -0.676117 13.0762 5)" stroke="#414CA9" stroke-width="3" stroke-linecap="round"/>
<line x1="1.5" y1="-1.5" x2="16.2484" y2="-1.5" transform="matrix(-0.736794 0.676117 -0.736794 -0.676117 20 5)" stroke="#414CA9" stroke-width="3" stroke-linecap="round"/>
<line x1="1.5" y1="-1.5" x2="16.2484" y2="-1.5" transform="matrix(-0.736794 -0.676117 -0.736794 0.676117 13.0762 29)" stroke="#414CA9" stroke-width="3" stroke-linecap="round"/>
<line x1="1.5" y1="-1.5" x2="16.2484" y2="-1.5" transform="matrix(-0.736794 -0.676117 -0.736794 0.676117 20 29)" stroke="#414CA9" stroke-width="3" stroke-linecap="round"/>
<line x1="1.5" y1="-1.5" x2="16.2484" y2="-1.5" transform="matrix(0.736794 0.676117 0.736794 -0.676117 258.924 4)" stroke="#414CA9" stroke-width="3" stroke-linecap="round"/>
<line x1="1.5" y1="-1.5" x2="16.2484" y2="-1.5" transform="matrix(0.736794 0.676117 0.736794 -0.676117 252 4)" stroke="#414CA9" stroke-width="3" stroke-linecap="round"/>
<line x1="1.5" y1="-1.5" x2="16.2484" y2="-1.5" transform="matrix(0.736794 -0.676117 0.736794 0.676117 258.924 28)" stroke="#414CA9" stroke-width="3" stroke-linecap="round"/>
<line x1="1.5" y1="-1.5" x2="16.2484" y2="-1.5" transform="matrix(0.736794 -0.676117 0.736794 0.676117 252 28)" stroke="#414CA9" stroke-width="3" stroke-linecap="round"/>
<mask id="path-9-inside-1_1187_981" fill="white">
<path fill-rule="evenodd" clip-rule="evenodd" d="M131.111 15.5629C132.179 16.3628 132.179 17.9654 131.111 18.7653L116.198 29.9258C114.88 30.9128 113 29.9718 113 28.3246V22.5267L103.594 25.4509C102.306 25.8511 101 24.8891 101 23.5411L101 10.7869C101 9.43887 102.306 8.47688 103.594 8.87707L113 11.8013V6.00363C113 4.35647 114.88 3.41545 116.198 4.40241L131.111 15.5629Z"/>
</mask>
<path fill-rule="evenodd" clip-rule="evenodd" d="M131.111 15.5629C132.179 16.3628 132.179 17.9654 131.111 18.7653L116.198 29.9258C114.88 30.9128 113 29.9718 113 28.3246V22.5267L103.594 25.4509C102.306 25.8511 101 24.8891 101 23.5411L101 10.7869C101 9.43887 102.306 8.47688 103.594 8.87707L113 11.8013V6.00363C113 4.35647 114.88 3.41545 116.198 4.40241L131.111 15.5629Z" fill="white"/>
<path d="M131.11 18.7654L129.912 17.1641L131.11 18.7654ZM131.11 15.5629L132.309 13.9617L131.11 15.5629ZM116.198 29.9259L117.397 31.5271V31.5271L116.198 29.9259ZM113 22.5267H115C115 21.891 114.698 21.2931 114.186 20.9162C113.674 20.5393 113.013 20.4281 112.406 20.6169L113 22.5267ZM103.594 25.4509L103 23.5411H103L103.594 25.4509ZM101 23.5411H103H101ZM101 10.7869H99H101ZM103.594 8.87708L104.187 6.96724L104.187 6.96724L103.594 8.87708ZM113 11.8013L112.406 13.7111C113.013 13.8999 113.674 13.7888 114.186 13.4118C114.698 13.0349 115 12.437 115 11.8013H113ZM116.198 4.40242L115 6.00364L116.198 4.40242ZM132.309 20.3666C134.447 18.7667 134.447 15.5616 132.309 13.9617L129.912 17.1641V17.1641L132.309 20.3666ZM117.397 31.5271L132.309 20.3666L129.912 17.1641L115 28.3246L117.397 31.5271ZM111 28.3246C111 31.6189 114.759 33.501 117.397 31.5271L115 28.3246L115 28.3246H111ZM111 22.5267V28.3246H115V22.5267H111ZM104.187 27.3608L113.594 24.4365L112.406 20.6169L103 23.5411L104.187 27.3608ZM99 23.5411C99 26.2372 101.613 28.1611 104.187 27.3608L103 23.5411H103H99ZM99 10.7869L99 23.5411H103L103 10.7869H99ZM104.187 6.96724C101.613 6.16686 99 8.09083 99 10.7869H103L103 10.7869L104.187 6.96724ZM113.594 9.89147L104.187 6.96724L103 10.7869L112.406 13.7111L113.594 9.89147ZM111 6.00364V11.8013H115V6.00364H111ZM117.397 2.8012C114.759 0.827289 111 2.70932 111 6.00364H115L117.397 2.8012ZM132.309 13.9617L117.397 2.8012L115 6.00364L129.912 17.1641L132.309 13.9617Z" fill="#414CA9" mask="url(#path-9-inside-1_1187_981)"/>
<path fill-rule="evenodd" clip-rule="evenodd" d="M231.111 15.5629C232.179 16.3628 232.179 17.9654 231.111 18.7653L216.198 29.9258C214.88 30.9128 213 29.9718 213 28.3246V22.5267L203.594 25.4509C202.306 25.8511 201 24.8891 201 23.5411L201 10.7869C201 9.43887 202.306 8.47688 203.594 8.87707L213 11.8013V6.00363C213 4.35647 214.88 3.41545 216.198 4.40241L231.111 15.5629Z" fill="#414CA9"/>
<mask id="path-12-inside-2_1187_981" fill="white">
<path fill-rule="evenodd" clip-rule="evenodd" d="M150.802 15.5629C149.733 16.3628 149.733 17.9654 150.802 18.7653L165.714 29.9258C167.032 30.9128 168.912 29.9718 168.912 28.3246V22.5267L178.318 25.4509C179.606 25.8511 180.912 24.8891 180.912 23.5411L180.912 10.7869C180.912 9.43886 179.606 8.47688 178.318 8.87707L168.912 11.8013V6.00362C168.912 4.35647 167.032 3.41545 165.714 4.40241L150.802 15.5629Z"/>
</mask>
<path fill-rule="evenodd" clip-rule="evenodd" d="M150.802 15.5629C149.733 16.3628 149.733 17.9654 150.802 18.7653L165.714 29.9258C167.032 30.9128 168.912 29.9718 168.912 28.3246V22.5267L178.318 25.4509C179.606 25.8511 180.912 24.8891 180.912 23.5411L180.912 10.7869C180.912 9.43886 179.606 8.47688 178.318 8.87707L168.912 11.8013V6.00362C168.912 4.35647 167.032 3.41545 165.714 4.40241L150.802 15.5629Z" fill="white"/>
<path d="M150.802 18.7653L152 17.1641L152 17.1641L150.802 18.7653ZM150.802 15.5629L149.603 13.9617L149.603 13.9617L150.802 15.5629ZM165.714 29.9258L164.515 31.5271L164.515 31.5271L165.714 29.9258ZM168.912 22.5267H166.912C166.912 21.891 167.214 21.2931 167.726 20.9162C168.238 20.5392 168.899 20.4281 169.506 20.6169L168.912 22.5267ZM178.318 25.4509L178.912 23.5411L178.912 23.5411L178.318 25.4509ZM180.912 23.5411L178.912 23.5411L180.912 23.5411ZM180.912 10.7869L182.912 10.7869L180.912 10.7869ZM178.318 8.87708L177.725 6.96724L177.725 6.96724L178.318 8.87708ZM168.912 11.8013L169.506 13.7111C168.899 13.8999 168.238 13.7887 167.726 13.4118C167.214 13.0349 166.912 12.437 166.912 11.8013H168.912ZM165.714 4.40242L166.912 6.00363L166.912 6.00363L165.714 4.40242ZM149.603 20.3666C147.466 18.7667 147.466 15.5616 149.603 13.9617L152 17.1641L152 17.1641L149.603 20.3666ZM164.515 31.5271L149.603 20.3666L152 17.1641L166.912 28.3246L164.515 31.5271ZM170.912 28.3246C170.912 31.6189 167.153 33.501 164.515 31.5271L166.912 28.3246L166.912 28.3246H170.912ZM170.912 22.5267V28.3246H166.912V22.5267H170.912ZM177.725 27.3608L168.318 24.4365L169.506 20.6169L178.912 23.5411L177.725 27.3608ZM182.912 23.5411C182.912 26.2372 180.299 28.1611 177.725 27.3608L178.912 23.5411L178.912 23.5411L182.912 23.5411ZM182.912 10.7869L182.912 23.5411L178.912 23.5411L178.912 10.7869L182.912 10.7869ZM177.725 6.96724C180.299 6.16686 182.912 8.09082 182.912 10.7869L178.912 10.7869L178.912 10.7869L177.725 6.96724ZM168.318 9.89147L177.725 6.96724L178.912 10.7869L169.506 13.7111L168.318 9.89147ZM170.912 6.00363V11.8013H166.912V6.00363H170.912ZM164.515 2.8012C167.153 0.827285 170.912 2.70932 170.912 6.00363H166.912L166.912 6.00363L164.515 2.8012ZM149.603 13.9617L164.515 2.8012L166.912 6.00363L152 17.1641L149.603 13.9617Z" fill="#414CA9" mask="url(#path-12-inside-2_1187_981)"/>
<path fill-rule="evenodd" clip-rule="evenodd" d="M50.8016 15.5629C49.7327 16.3628 49.7327 17.9654 50.8016 18.7653L65.7137 29.9258C67.0325 30.9128 68.9121 29.9718 68.9121 28.3246V22.5267L78.3184 25.4509C79.6056 25.8511 80.9121 24.8891 80.9121 23.5411L80.9121 10.7869C80.9121 9.43886 79.6056 8.47688 78.3184 8.87707L68.9121 11.8013V6.00362C68.9121 4.35647 67.0324 3.41545 65.7137 4.40241L50.8016 15.5629Z" fill="#414CA9"/>
</svg>
